<svg xmlns="http://www.w3.org/2000/svg" xmlns:xlink="http://www.w3.org/1999/xlink" width="500" zoomAndPan="magnify" viewBox="0 0 375 374.999991" height="500" preserveAspectRatio="xMidYMid meet" version="1.0"><defs><g/><clipPath id="4b7e418af8"><path d="M 54 28.285156 L 321 28.285156 L 321 265 L 54 265 Z M 54 28.285156 " clip-rule="nonzero"/></clipPath><clipPath id="b859600e1a"><path d="M 54 28.285156 L 321 28.285156 L 321 265 L 54 265 Z M 54 28.285156 " clip-rule="nonzero"/></clipPath></defs><g clip-path="url(#4b7e418af8)"><path fill="#ffffff" d="M 183.34375 29.015625 C 179.949219 29.890625 177.726562 31.238281 174.273438 34.515625 C 166.542969 41.769531 161.746094 53.710938 159.8125 70.5625 C 157.296875 91.746094 160.984375 119.132812 169.53125 142.421875 L 170.640625 145.523438 L 166.601562 153.25 C 161.570312 162.964844 160.574219 164.71875 157.414062 169.632812 C 156.007812 171.800781 154.835938 173.730469 154.835938 173.90625 C 154.835938 174.140625 151.734375 178.820312 149.570312 181.804688 C 149.394531 182.039062 146.464844 182.800781 143.128906 183.503906 C 139.734375 184.207031 135.519531 185.140625 133.761719 185.609375 C 123.226562 188.535156 119.246094 189.824219 112.398438 192.457031 C 83.832031 203.515625 63.050781 220.019531 56.140625 237.046875 C 54.796875 240.441406 54.503906 242.023438 54.445312 246.410156 C 54.445312 251.269531 54.621094 251.96875 56.257812 254.894531 C 59.828125 261.273438 65.800781 264.199219 76.101562 264.667969 C 89.390625 265.3125 104.203125 260.746094 120.59375 250.917969 C 125.042969 248.285156 131.246094 244.1875 133.46875 242.488281 C 145.824219 232.953125 157.53125 221.773438 165.257812 212.175781 L 166.429688 210.714844 L 208.222656 210.714844 L 209.394531 212.175781 C 217.121094 221.773438 228.828125 232.953125 241.179688 242.488281 C 243.40625 244.1875 249.609375 248.285156 254.058594 250.917969 C 270.449219 260.746094 285.261719 265.3125 298.550781 264.667969 C 308.851562 264.199219 314.824219 261.273438 318.394531 254.894531 C 320.03125 251.96875 320.207031 251.269531 320.207031 246.410156 C 320.148438 242.023438 319.855469 240.441406 318.511719 237.046875 C 311.601562 220.019531 290.820312 203.515625 262.253906 192.457031 C 255.40625 189.824219 251.425781 188.535156 240.886719 185.609375 C 239.132812 185.140625 234.917969 184.207031 231.523438 183.503906 C 228.1875 182.800781 225.257812 182.039062 225.082031 181.804688 C 222.917969 178.820312 219.816406 174.140625 219.816406 173.90625 C 219.816406 173.730469 218.644531 171.800781 217.238281 169.632812 C 214.078125 164.71875 213.082031 162.964844 208.046875 153.25 L 204.007812 145.523438 L 205.121094 142.421875 C 205.765625 140.726562 207.054688 136.6875 207.988281 133.46875 C 218.175781 99.585938 218.234375 67.167969 208.222656 45.398438 C 205.296875 39.078125 199.152344 32.234375 194.46875 30.183594 C 191.363281 28.78125 186.332031 28.3125 183.34375 29.015625 Z M 193.824219 31.648438 C 209.453125 38.613281 217.824219 69.976562 213.140625 104.210938 C 211.386719 116.734375 207.289062 133.585938 204.007812 141.664062 L 203.308594 143.417969 L 201.550781 139.730469 L 199.792969 136.101562 L 201.902344 128.613281 C 206.703125 111.875 208.691406 98.300781 208.691406 83.027344 C 208.691406 66.699219 206.234375 54.410156 201.375 46.277344 C 197.101562 39.195312 193.121094 36.386719 187.324219 36.386719 C 181.53125 36.386719 177.550781 39.195312 173.277344 46.277344 C 168.417969 54.410156 165.960938 66.699219 165.960938 83.027344 C 165.960938 98.300781 167.949219 111.875 172.75 128.613281 L 174.855469 136.101562 L 173.101562 139.730469 L 171.34375 143.417969 L 170.640625 141.664062 C 168.828125 137.15625 164.671875 122.351562 163.324219 115.269531 C 156.652344 81.097656 161.160156 49.554688 174.566406 36.269531 C 181.003906 29.832031 186.683594 28.488281 193.824219 31.648438 Z M 190.078125 37.792969 C 193.882812 38.84375 198.449219 43.703125 201.375 49.730469 C 205.882812 59.035156 207.523438 68.046875 207.523438 83.144531 C 207.523438 97.1875 205.589844 110.355469 201.316406 126.097656 C 200.203125 130.132812 199.210938 133.46875 199.09375 133.585938 C 198.976562 133.703125 198.15625 131.832031 197.277344 129.375 L 195.636719 124.867188 L 197.453125 117.496094 C 201.257812 102.28125 201.960938 96.835938 201.960938 81.097656 C 201.960938 65.941406 201.550781 62.605469 198.742188 55.230469 C 197.21875 51.132812 194.351562 46.804688 192.125 45.164062 C 189.84375 43.46875 184.808594 43.46875 182.527344 45.164062 C 180.300781 46.804688 177.433594 51.132812 175.910156 55.230469 C 173.101562 62.605469 172.691406 65.941406 172.691406 81.097656 C 172.691406 96.835938 173.394531 102.28125 177.199219 117.496094 L 179.011719 124.867188 L 177.375 129.375 C 176.496094 131.832031 175.675781 133.703125 175.558594 133.585938 C 175.089844 133.117188 171.285156 118.429688 170.117188 112.695312 C 167.246094 98.183594 166.253906 80.042969 167.773438 68.984375 C 169.472656 56.578125 173.628906 46.394531 179.128906 41.421875 C 183.402344 37.5 185.980469 36.679688 190.078125 37.792969 Z M 189.902344 45.632812 C 193.882812 47.742188 197.277344 53.59375 199.445312 62.195312 C 200.613281 66.816406 200.789062 68.808594 200.789062 81.097656 C 200.730469 92.742188 200.554688 95.960938 199.445312 102.164062 C 197.628906 112.109375 195.171875 122.058594 194.585938 121.707031 C 194.292969 121.53125 193.53125 119.542969 192.828125 117.203125 L 191.597656 112.988281 L 192.828125 107.429688 C 196.222656 91.921875 197.335938 75.300781 195.578125 65.296875 C 194 56.167969 191.074219 51.25 187.324219 51.25 C 178.078125 51.25 175.441406 78.402344 181.824219 107.429688 L 183.050781 112.988281 L 181.824219 117.203125 C 181.121094 119.542969 180.359375 121.53125 180.066406 121.707031 C 179.480469 122.058594 177.023438 112.109375 175.207031 102.164062 C 174.097656 95.960938 173.921875 92.742188 173.863281 81.097656 C 173.863281 68.808594 174.039062 66.816406 175.207031 62.195312 C 177.316406 53.769531 180.359375 48.324219 184.398438 45.925781 C 186.507812 44.582031 187.734375 44.523438 189.902344 45.632812 Z M 189.960938 54.175781 C 196.164062 60.789062 196.808594 84.488281 191.539062 107.429688 L 190.78125 110.648438 L 189.375 105.03125 C 188.027344 99.46875 188.027344 99.296875 188.964844 94.496094 C 190.605469 86.070312 191.304688 78.285156 191.015625 70.621094 C 190.664062 61.902344 189.726562 58.859375 187.324219 58.859375 C 184.925781 58.859375 183.988281 61.902344 183.636719 70.621094 C 183.34375 78.285156 184.046875 86.070312 185.6875 94.496094 C 186.625 99.296875 186.625 99.46875 185.277344 105.03125 L 183.871094 110.648438 L 183.109375 107.429688 C 180.125 94.320312 178.664062 76.882812 179.949219 67.929688 C 181.179688 59.152344 184.398438 52.421875 187.324219 52.421875 C 187.851562 52.421875 189.082031 53.242188 189.960938 54.175781 Z M 189.433594 65.238281 C 190.3125 69.449219 189.84375 81.621094 188.4375 90.167969 C 187.207031 97.597656 187.148438 97.421875 185.511719 84.957031 C 184.339844 75.710938 184.574219 65.589844 186.097656 62.078125 C 187.035156 59.914062 187.148438 59.796875 187.910156 60.847656 C 188.378906 61.433594 189.023438 63.421875 189.433594 65.238281 Z M 189.316406 115.5625 C 188.964844 117.320312 188.320312 119.660156 187.96875 120.828125 L 187.207031 122.878906 L 185.921875 118.019531 L 184.632812 113.164062 L 185.980469 107.605469 L 187.265625 102.046875 L 188.613281 107.195312 C 189.84375 111.757812 189.902344 112.8125 189.316406 115.5625 Z M 185.277344 120.421875 L 186.507812 124.925781 L 185.21875 129.082031 C 184.457031 131.304688 183.695312 133.175781 183.519531 133.175781 C 183.34375 133.175781 182.585938 131.363281 181.882812 129.140625 L 180.535156 125.042969 L 182.175781 120.070312 C 183.050781 117.320312 183.871094 115.269531 183.871094 115.503906 C 183.929688 115.738281 184.574219 117.960938 185.277344 120.421875 Z M 192.828125 128.90625 C 192.066406 131.246094 191.363281 133.175781 191.132812 133.175781 C 190.898438 133.175781 190.136719 131.246094 189.433594 128.90625 L 188.144531 124.691406 L 189.316406 120.886719 C 189.960938 118.78125 190.546875 116.558594 190.546875 115.914062 C 190.605469 115.269531 191.363281 116.96875 192.359375 119.71875 L 194.117188 124.691406 Z M 181.355469 131.773438 C 182.703125 135.753906 182.703125 135.8125 181.648438 138.445312 C 181.0625 139.90625 180.417969 141.546875 180.242188 142.070312 C 179.65625 143.828125 179.070312 143.242188 177.726562 139.554688 C 176.496094 136.277344 176.4375 135.871094 177.257812 133.585938 C 178.722656 129.550781 179.65625 127.382812 179.832031 127.558594 C 179.949219 127.617188 180.59375 129.550781 181.355469 131.773438 Z M 189.316406 132.476562 L 190.488281 135.519531 L 188.90625 139.964844 L 187.382812 144.414062 L 185.980469 140.667969 C 184.222656 136.101562 184.222656 135.519531 185.921875 130.894531 C 186.976562 128.027344 187.324219 127.382812 187.675781 128.261719 C 187.910156 128.847656 188.613281 130.777344 189.316406 132.476562 Z M 197.511719 133.878906 C 198.15625 135.8125 198.097656 136.511719 196.925781 139.613281 C 195.578125 143.242188 194.996094 143.828125 194.410156 142.070312 C 194.234375 141.546875 193.589844 139.90625 193.003906 138.445312 C 191.949219 135.8125 191.949219 135.8125 193.355469 131.539062 L 194.761719 127.207031 L 195.8125 129.492188 C 196.339844 130.71875 197.101562 132.710938 197.511719 133.878906 Z M 177.023438 141.371094 C 178.605469 145.464844 178.546875 146.285156 176.554688 150.03125 L 174.972656 153.132812 L 173.511719 149.445312 L 171.988281 145.699219 L 173.746094 141.78125 C 174.738281 139.613281 175.617188 137.917969 175.675781 138.035156 C 175.734375 138.09375 176.378906 139.613281 177.023438 141.371094 Z M 185.21875 142.304688 L 186.507812 145.875 L 184.925781 149.738281 C 184.046875 151.902344 183.226562 153.542969 183.109375 153.425781 C 182.996094 153.308594 182.292969 151.550781 181.53125 149.503906 C 180.125 145.523438 180.125 145.40625 181.824219 141.546875 C 182.46875 140.199219 182.9375 138.738281 182.9375 138.386719 C 182.9375 136.980469 183.871094 138.679688 185.21875 142.304688 Z M 192.886719 141.664062 C 194.527344 145.40625 194.527344 145.582031 193.121094 149.503906 C 192.359375 151.550781 191.65625 153.308594 191.539062 153.425781 C 191.421875 153.542969 190.605469 151.902344 189.726562 149.679688 L 188.144531 145.699219 L 189.257812 142.832031 C 189.84375 141.195312 190.546875 139.378906 190.839844 138.738281 C 191.191406 137.800781 191.304688 137.742188 191.539062 138.445312 C 191.714844 138.914062 192.300781 140.375 192.886719 141.664062 Z M 201.140625 149.386719 L 199.675781 153.132812 L 198.097656 150.03125 C 196.105469 146.226562 196.046875 145.640625 197.6875 141.195312 L 198.976562 137.683594 L 200.789062 141.664062 L 202.664062 145.640625 Z M 189.023438 159.042969 L 187.265625 162.554688 L 185.628906 158.984375 L 183.929688 155.472656 L 185.628906 151.375 L 187.324219 147.28125 L 189.023438 151.433594 L 190.722656 155.53125 Z M 172.925781 151.550781 L 174.214844 155.238281 L 171.753906 159.863281 C 170.410156 162.378906 167.070312 168.230469 164.261719 172.792969 C 159.578125 180.578125 159.109375 181.164062 157.472656 181.164062 C 156.535156 181.164062 154.71875 181.339844 153.492188 181.570312 L 151.265625 181.921875 L 155.070312 176.011719 C 157.238281 172.734375 159.519531 169.050781 160.222656 167.878906 C 164.203125 160.796875 165.667969 158.105469 168.183594 153.191406 C 169.648438 150.265625 171.050781 147.808594 171.226562 147.808594 C 171.460938 147.808594 172.164062 149.503906 172.925781 151.550781 Z M 181.121094 151.84375 L 182.410156 155.355469 L 180.710938 158.75 L 179.011719 162.085938 L 177.84375 159.804688 C 175.734375 155.589844 175.675781 155.003906 177.492188 151.316406 C 178.371094 149.445312 179.304688 148.039062 179.480469 148.15625 C 179.65625 148.273438 180.417969 149.914062 181.121094 151.84375 Z M 198.742188 155.0625 C 198.742188 155.414062 198.039062 157.167969 197.21875 158.925781 L 195.695312 162.144531 L 194 158.75 L 192.242188 155.355469 L 193.472656 152.078125 C 194.175781 150.265625 194.878906 148.507812 195.054688 148.214844 C 195.347656 147.691406 198.742188 153.894531 198.742188 155.0625 Z M 206.46875 153.191406 C 208.984375 158.105469 210.449219 160.796875 214.429688 167.878906 C 215.132812 169.050781 217.414062 172.734375 219.582031 176.011719 L 223.386719 181.921875 L 221.160156 181.570312 C 219.933594 181.339844 218.117188 181.164062 217.179688 181.164062 C 215.542969 181.164062 215.074219 180.578125 210.390625 172.792969 C 207.582031 168.230469 204.242188 162.378906 202.898438 159.863281 L 200.4375 155.238281 L 201.726562 151.550781 C 202.488281 149.503906 203.191406 147.808594 203.425781 147.808594 C 203.601562 147.808594 205.003906 150.265625 206.46875 153.191406 Z M 177.316406 165.539062 C 176.261719 167.585938 173.160156 172.792969 170.46875 177.125 C 168.828125 179.757812 168.710938 179.816406 165.257812 180.226562 C 163.265625 180.402344 161.628906 180.519531 161.511719 180.402344 C 161.453125 180.34375 163.324219 177.066406 165.726562 173.085938 C 168.066406 169.167969 171.167969 163.78125 172.515625 161.207031 L 174.972656 156.527344 L 176.613281 160.097656 C 178.136719 163.546875 178.195312 163.78125 177.316406 165.539062 Z M 202.195312 161.265625 C 203.542969 163.839844 206.585938 169.167969 208.925781 173.085938 C 211.328125 177.066406 213.199219 180.34375 213.140625 180.402344 C 213.023438 180.519531 211.386719 180.402344 209.394531 180.226562 C 205.472656 179.816406 206 180.34375 200.378906 170.921875 C 196.164062 163.78125 196.222656 164.191406 198.039062 160.15625 C 198.917969 158.222656 199.617188 156.585938 199.675781 156.585938 C 199.734375 156.585938 200.847656 158.691406 202.195312 161.265625 Z M 184.925781 167.234375 L 183.285156 170.628906 L 181.648438 167.878906 C 179.65625 164.425781 179.65625 163.722656 181.53125 159.980469 L 183.109375 156.9375 L 184.808594 160.386719 L 186.566406 163.78125 Z M 193.179688 160.097656 C 194.996094 163.722656 194.996094 164.425781 193.003906 167.878906 L 191.363281 170.628906 L 189.726562 167.234375 L 188.085938 163.839844 L 189.726562 160.503906 C 190.664062 158.691406 191.421875 157.167969 191.539062 157.167969 C 191.597656 157.167969 192.359375 158.457031 193.179688 160.097656 Z M 189.257812 175.019531 C 188.4375 176.539062 187.558594 177.769531 187.324219 177.769531 C 187.09375 177.769531 186.214844 176.539062 185.394531 175.078125 L 183.871094 172.382812 L 185.570312 168.816406 L 187.265625 165.246094 L 189.023438 168.816406 L 190.78125 172.328125 Z M 180.769531 168.875 L 182.410156 171.859375 L 180.359375 175.542969 L 178.253906 179.289062 L 174.449219 179.523438 C 172.339844 179.582031 170.640625 179.582031 170.640625 179.464844 C 170.640625 179.289062 171.285156 178.238281 172.046875 177.125 C 172.808594 175.953125 174.566406 172.96875 175.96875 170.511719 C 177.375 167.996094 178.664062 166.007812 178.839844 165.949219 C 179.011719 165.949219 179.890625 167.292969 180.769531 168.875 Z M 198.683594 170.511719 C 200.085938 172.96875 201.84375 175.953125 202.605469 177.125 C 203.367188 178.238281 204.007812 179.289062 204.007812 179.464844 C 204.007812 179.582031 202.3125 179.582031 200.203125 179.523438 L 196.398438 179.289062 L 194.292969 175.542969 L 192.242188 171.859375 L 193.882812 168.875 C 194.761719 167.292969 195.636719 165.949219 195.8125 165.949219 C 195.988281 166.007812 197.277344 167.996094 198.683594 170.511719 Z M 184.867188 176.773438 L 186.390625 179.40625 L 183.167969 179.40625 C 181.414062 179.40625 180.007812 179.289062 180.007812 179.054688 C 180.007812 178.46875 182.644531 174.140625 183.050781 174.140625 C 183.226562 174.140625 184.105469 175.3125 184.867188 176.773438 Z M 193.355469 176.480469 C 194.058594 177.710938 194.644531 178.878906 194.644531 179.054688 C 194.644531 179.289062 193.238281 179.40625 191.480469 179.40625 L 188.261719 179.40625 L 189.785156 176.773438 C 190.546875 175.3125 191.421875 174.140625 191.597656 174.140625 C 191.832031 174.140625 192.59375 175.195312 193.355469 176.480469 Z M 175.617188 183.035156 C 174.796875 184.441406 173.921875 185.84375 173.6875 186.253906 C 173.453125 186.605469 171.460938 187.074219 169.238281 187.308594 C 165.140625 187.773438 164.90625 187.65625 166.71875 185.550781 C 166.953125 185.199219 167.714844 184.148438 168.300781 183.09375 C 169.472656 181.164062 170.410156 180.8125 174.625 180.636719 L 177.140625 180.578125 Z M 184.28125 183.503906 C 182.878906 186.078125 182.46875 186.429688 180.300781 186.78125 C 178.953125 186.957031 177.199219 187.015625 176.378906 186.898438 L 174.855469 186.722656 L 176.847656 183.621094 L 178.839844 180.578125 L 185.863281 180.578125 Z M 189.023438 183.621094 L 190.664062 186.429688 L 184.046875 186.429688 L 185.6875 183.5625 C 186.566406 181.921875 187.324219 180.695312 187.382812 180.753906 C 187.382812 180.8125 188.144531 182.097656 189.023438 183.621094 Z M 197.804688 183.621094 L 199.792969 186.722656 L 198.273438 186.898438 C 197.453125 187.015625 195.695312 186.957031 194.351562 186.78125 C 192.183594 186.429688 191.773438 186.078125 190.371094 183.503906 L 188.789062 180.578125 L 195.8125 180.578125 Z M 203.425781 180.929688 C 204.652344 181.222656 205.648438 181.921875 206.351562 183.152344 C 206.996094 184.148438 207.699219 185.199219 207.929688 185.550781 C 209.746094 187.65625 209.511719 187.773438 205.414062 187.308594 C 203.191406 187.074219 201.199219 186.605469 200.964844 186.253906 C 200.730469 185.84375 199.851562 184.441406 199.035156 183.035156 L 197.511719 180.578125 L 199.503906 180.578125 C 200.613281 180.578125 202.371094 180.753906 203.425781 180.929688 Z M 167.011719 182.449219 C 163.675781 188.183594 164.144531 187.890625 158.757812 188.476562 L 155.421875 188.828125 L 157.765625 185.433594 C 160.222656 181.921875 160.867188 181.628906 166.429688 181.28125 C 167.65625 181.164062 167.714844 181.28125 167.011719 182.449219 Z M 212.847656 181.746094 C 214.019531 181.746094 214.839844 182.507812 216.769531 185.316406 L 219.230469 188.828125 L 215.835938 188.476562 C 210.507812 187.890625 210.976562 188.183594 207.640625 182.390625 C 206.820312 180.988281 206.820312 180.988281 209.042969 181.339844 C 210.332031 181.570312 212.027344 181.746094 212.847656 181.746094 Z M 157.765625 182.625 C 157.765625 183.09375 155.890625 185.960938 155.011719 186.898438 C 154.601562 187.308594 154.078125 188.007812 153.84375 188.417969 C 153.375 189.121094 146.113281 190.757812 145.589844 190.292969 C 145.0625 189.707031 150.269531 183.503906 151.5 183.269531 C 152.203125 183.09375 153.316406 182.859375 153.960938 182.742188 C 155.773438 182.332031 157.765625 182.273438 157.765625 182.625 Z M 223.972656 183.5625 C 225.023438 184.089844 229.414062 189.941406 229.0625 190.292969 C 228.535156 190.757812 221.277344 189.0625 220.808594 188.417969 C 220.574219 188.007812 220.050781 187.308594 219.640625 186.898438 C 218.703125 185.902344 216.886719 183.09375 216.886719 182.566406 C 216.886719 182.097656 222.742188 182.917969 223.972656 183.5625 Z M 147.8125 184.265625 C 147.8125 184.382812 146.757812 185.902344 145.472656 187.597656 L 143.070312 190.757812 L 134.464844 193.042969 C 126.09375 195.207031 113.859375 199.070312 109.761719 200.882812 C 102.679688 203.984375 94.894531 207.90625 90.796875 210.421875 C 70.601562 222.59375 59.300781 237.28125 61.761719 248.226562 C 62.640625 252.144531 64.804688 254.777344 68.726562 256.59375 C 71.710938 257.996094 72.589844 258.113281 79.324219 258.113281 C 87.050781 258.054688 90.445312 257.410156 98.347656 254.484375 C 108.183594 250.859375 120.359375 243.777344 130.777344 235.703125 C 137.683594 230.316406 139.382812 228.796875 148.105469 220.019531 L 155.714844 212.292969 L 159.695312 211.882812 C 162.332031 211.59375 163.617188 211.652344 163.617188 212.058594 C 163.617188 212.820312 144.945312 231.722656 141.492188 234.472656 C 140.085938 235.585938 138.445312 236.871094 137.859375 237.398438 C 137.277344 237.867188 136.046875 238.804688 135.226562 239.445312 C 134.347656 240.03125 132.710938 241.320312 131.539062 242.199219 C 127.910156 245.007812 115.03125 252.789062 109.761719 255.304688 C 99.285156 260.339844 86.757812 263.671875 78.09375 263.671875 C 66.738281 263.671875 58.425781 258.875 56.140625 250.917969 C 53.507812 241.90625 60.238281 228.328125 72.941406 217.09375 C 74.347656 215.804688 76.042969 214.34375 76.6875 213.757812 C 77.332031 213.113281 80.960938 210.597656 84.707031 208.082031 C 99.285156 198.308594 118.191406 190.46875 138.445312 185.84375 C 141.492188 185.140625 144.300781 184.496094 144.59375 184.382812 C 145.355469 184.089844 147.8125 184.03125 147.8125 184.265625 Z M 236.789062 185.902344 C 257.453125 190.875 275.601562 198.425781 289.945312 208.082031 C 293.691406 210.597656 297.320312 213.113281 297.964844 213.757812 C 298.609375 214.34375 300.304688 215.804688 301.710938 217.09375 C 314.414062 228.328125 321.144531 241.90625 318.511719 250.917969 C 316.226562 258.875 307.914062 263.671875 296.558594 263.671875 C 287.894531 263.671875 275.367188 260.339844 264.890625 255.304688 C 259.621094 252.789062 246.742188 245.007812 243.113281 242.199219 C 241.941406 241.320312 240.304688 240.03125 239.425781 239.445312 C 238.605469 238.804688 237.375 237.867188 236.789062 237.398438 C 236.207031 236.871094 234.566406 235.585938 233.160156 234.472656 C 229.707031 231.722656 211.035156 212.820312 211.035156 212.058594 C 211.035156 211.652344 212.320312 211.59375 214.957031 211.882812 L 218.9375 212.292969 L 226.546875 220.019531 C 235.269531 228.796875 236.964844 230.316406 243.875 235.703125 C 254.292969 243.777344 266.46875 250.859375 276.304688 254.484375 C 284.207031 257.410156 287.601562 258.054688 295.328125 258.113281 C 302.0625 258.113281 302.9375 257.996094 305.925781 256.59375 C 315.230469 252.203125 315.640625 241.4375 307.035156 229.96875 C 299.015625 219.316406 285.4375 209.953125 264.890625 200.882812 C 260.792969 199.070312 248.558594 195.207031 240.1875 193.042969 L 231.582031 190.757812 L 229.179688 187.597656 C 227.894531 185.902344 226.839844 184.324219 226.839844 184.207031 C 226.839844 183.796875 231.113281 184.554688 236.789062 185.902344 Z M 180.828125 189.179688 C 180.300781 190.117188 179.246094 191.695312 178.605469 192.691406 C 177.433594 194.5625 177.257812 194.621094 173.335938 194.621094 L 169.296875 194.621094 L 170.875 192.691406 C 171.753906 191.695312 172.75 190.234375 173.101562 189.53125 C 173.628906 188.417969 174.332031 188.183594 177.609375 188.007812 C 179.714844 187.890625 181.589844 187.773438 181.707031 187.714844 C 181.824219 187.65625 181.414062 188.300781 180.828125 189.179688 Z M 193.179688 190.640625 L 195.230469 193.742188 L 191.480469 193.917969 C 189.375 194.035156 185.804688 194.035156 183.519531 193.917969 L 179.421875 193.742188 L 181.472656 190.640625 L 183.578125 187.597656 L 191.074219 187.597656 Z M 201.609375 189.53125 C 201.960938 190.234375 202.898438 191.695312 203.773438 192.691406 L 205.355469 194.621094 L 201.316406 194.621094 C 197.394531 194.621094 197.21875 194.5625 196.046875 192.691406 C 195.402344 191.695312 194.410156 190.175781 193.882812 189.355469 L 192.945312 187.890625 L 196.925781 188.066406 C 200.320312 188.242188 201.023438 188.476562 201.609375 189.53125 Z M 171.988281 188.886719 C 171.753906 189.296875 170.640625 190.875 169.53125 192.339844 C 167.65625 194.972656 167.480469 195.089844 164.027344 195.382812 C 162.039062 195.558594 160.28125 195.617188 160.164062 195.5 C 160.046875 195.324219 160.925781 193.800781 162.15625 192.046875 C 164.261719 188.945312 164.4375 188.828125 167.363281 188.59375 C 169.003906 188.476562 170.816406 188.359375 171.402344 188.300781 C 172.105469 188.242188 172.28125 188.417969 171.988281 188.886719 Z M 208.105469 188.769531 C 210.039062 188.769531 210.449219 189.0625 212.496094 191.988281 C 213.726562 193.800781 214.605469 195.324219 214.488281 195.5 C 214.371094 195.617188 212.613281 195.558594 210.625 195.382812 C 207.171875 195.089844 206.996094 194.972656 205.121094 192.339844 C 201.84375 187.832031 201.84375 187.949219 204.007812 188.359375 C 205.0625 188.59375 206.878906 188.769531 208.105469 188.769531 Z M 160.691406 191.8125 C 159.695312 193.21875 158.582031 194.738281 158.175781 195.265625 C 157.765625 195.851562 155.832031 196.378906 153.257812 196.726562 C 148.515625 197.371094 148.574219 197.78125 152.671875 192.75 C 154.953125 189.941406 155.363281 189.765625 160.867188 189.472656 L 162.503906 189.355469 Z M 221.453125 192.164062 C 222.566406 193.335938 223.914062 194.972656 224.496094 195.792969 L 225.550781 197.3125 L 221.394531 196.726562 C 218.761719 196.378906 216.886719 195.851562 216.476562 195.265625 C 216.066406 194.738281 214.898438 193.160156 213.902344 191.753906 L 212.027344 189.238281 L 215.777344 189.589844 C 219.113281 189.941406 219.757812 190.234375 221.453125 192.164062 Z M 151.910156 190.933594 C 151.910156 191.226562 150.738281 192.867188 149.335938 194.679688 C 147.050781 197.605469 146.464844 198.015625 144.066406 198.308594 C 142.601562 198.542969 140.671875 198.894531 139.851562 199.070312 C 138.503906 199.421875 138.386719 199.363281 138.914062 198.367188 C 139.265625 197.722656 140.554688 196.085938 141.898438 194.621094 C 144.242188 191.988281 144.945312 191.695312 151.5 190.582031 C 151.734375 190.582031 151.910156 190.699219 151.910156 190.933594 Z M 227.191406 191.402344 C 229.589844 191.753906 230.46875 192.222656 232.574219 194.503906 C 233.980469 196.027344 235.386719 197.722656 235.738281 198.367188 C 236.265625 199.363281 236.148438 199.421875 234.800781 199.070312 C 233.980469 198.894531 232.050781 198.542969 230.585938 198.308594 C 228.1875 198.015625 227.601562 197.605469 225.316406 194.679688 C 222.683594 191.285156 222.15625 190.175781 223.5625 190.699219 C 223.972656 190.875 225.609375 191.167969 227.191406 191.402344 Z M 138.855469 196.085938 C 136.164062 199.480469 135.460938 200.0625 132.59375 200.824219 C 130.835938 201.351562 127.148438 202.40625 124.398438 203.164062 C 103.5 209.308594 82.894531 220.953125 74.113281 231.605469 C 70.074219 236.578125 68.785156 239.445312 68.785156 243.71875 C 68.785156 249.863281 71.769531 251.96875 80.433594 251.96875 C 91.558594 251.96875 107.304688 245.125 121.761719 234.003906 C 130.484375 227.273438 131.421875 226.457031 141.082031 217.09375 C 143.890625 214.34375 144.476562 214.050781 148.398438 213.40625 C 150.738281 213.054688 152.730469 212.820312 152.847656 212.9375 C 153.140625 213.230469 141.082031 225.402344 137.335938 228.5625 C 135.578125 230.027344 133.878906 231.488281 133.527344 231.78125 C 133.179688 232.132812 131.304688 233.59375 129.371094 235 C 127.441406 236.460938 125.742188 237.808594 125.566406 237.984375 C 125.390625 238.21875 122.640625 240.089844 119.421875 242.140625 C 100.980469 254.019531 82.894531 259.460938 72.238281 256.300781 C 60.238281 252.789062 59.59375 241.789062 70.660156 228.503906 C 82.425781 214.34375 105.136719 202.171875 134.054688 194.386719 C 138.269531 193.277344 141.722656 192.339844 141.78125 192.339844 C 141.898438 192.28125 140.554688 193.976562 138.855469 196.085938 Z M 254.175781 198.425781 C 284.207031 208.433594 307.269531 225.871094 311.367188 241.671875 C 313.242188 248.808594 310.023438 254.078125 302.414062 256.300781 C 291.757812 259.460938 273.671875 254.019531 255.230469 242.140625 C 252.011719 240.089844 249.257812 238.21875 249.082031 237.984375 C 248.910156 237.808594 247.210938 236.460938 245.277344 235 C 243.347656 233.59375 241.472656 232.132812 241.121094 231.78125 C 240.773438 231.488281 239.074219 230.027344 237.316406 228.5625 C 233.570312 225.402344 221.511719 213.230469 221.804688 212.9375 C 221.921875 212.820312 223.914062 213.054688 226.253906 213.40625 C 230.175781 214.050781 230.761719 214.34375 233.570312 217.09375 C 243.230469 226.457031 244.167969 227.273438 252.890625 234.003906 C 259.386719 238.980469 265.242188 242.546875 272.792969 246.175781 C 281.164062 250.15625 287.777344 251.96875 294.21875 251.96875 C 302.878906 251.96875 305.867188 249.863281 305.867188 243.71875 C 305.867188 239.445312 304.578125 236.578125 300.539062 231.605469 C 291.757812 220.953125 271.152344 209.308594 250.253906 203.164062 C 247.503906 202.40625 243.816406 201.351562 242.058594 200.824219 C 239.191406 200.0625 238.488281 199.480469 235.796875 196.144531 L 232.808594 192.398438 L 240.539062 194.445312 C 244.753906 195.558594 250.898438 197.3125 254.175781 198.425781 Z M 196.984375 196.496094 C 197.6875 197.253906 198.683594 198.542969 199.210938 199.421875 C 199.734375 200.355469 200.378906 201.058594 200.613281 201.058594 C 200.847656 201.058594 201.082031 201.234375 201.082031 201.46875 C 201.082031 201.761719 194.878906 201.9375 187.324219 201.9375 C 179.773438 201.9375 173.570312 201.761719 173.570312 201.46875 C 173.570312 201.234375 173.804688 201.058594 174.039062 201.058594 C 174.273438 201.058594 174.914062 200.355469 175.441406 199.421875 C 177.960938 195.265625 178.078125 195.207031 187.324219 195.207031 C 195.347656 195.207031 195.8125 195.265625 196.984375 196.496094 Z M 174.039062 199.011719 C 172.398438 201.117188 171.109375 202.230469 170.292969 202.230469 C 169.589844 202.230469 167.773438 202.40625 166.253906 202.640625 L 163.441406 202.988281 L 165.082031 200.707031 C 168.652344 195.851562 168.769531 195.792969 172.808594 195.792969 L 176.554688 195.792969 Z M 208.457031 199.304688 C 209.804688 201.058594 210.859375 202.582031 210.742188 202.699219 C 210.683594 202.8125 208.867188 202.699219 206.820312 202.464844 C 203.074219 202.113281 202.957031 202.054688 200.496094 198.894531 L 198.039062 195.734375 L 206 196.085938 Z M 165.316406 198.25 C 163.148438 201.410156 160.75 203.398438 159.050781 203.398438 C 158.175781 203.398438 156.417969 203.574219 155.128906 203.808594 L 152.789062 204.160156 L 155.128906 201.292969 C 156.417969 199.710938 157.765625 198.132812 158.117188 197.722656 C 158.699219 197.078125 160.75 196.726562 164.964844 196.496094 L 166.601562 196.378906 Z M 216.59375 197.78125 C 216.945312 198.132812 218.234375 199.710938 219.523438 201.292969 L 221.863281 204.160156 L 219.523438 203.808594 C 218.234375 203.574219 216.476562 203.398438 215.601562 203.398438 C 213.902344 203.398438 211.503906 201.410156 209.277344 198.25 L 207.929688 196.261719 L 211.96875 196.667969 C 214.136719 196.902344 216.242188 197.429688 216.59375 197.78125 Z M 156.007812 197.898438 C 156.007812 198.132812 154.835938 199.710938 153.375 201.410156 C 150.855469 204.335938 150.5625 204.511719 146.582031 205.15625 C 144.300781 205.566406 142.367188 205.742188 142.25 205.683594 C 142.132812 205.566406 143.421875 203.925781 145.0625 202.113281 C 147.8125 199.011719 148.398438 198.660156 151.324219 198.191406 C 155.65625 197.488281 156.007812 197.488281 156.007812 197.898438 Z M 224.320312 198.425781 C 226.371094 198.71875 227.25 199.363281 229.765625 202.289062 C 231.40625 204.160156 232.460938 205.742188 232.050781 205.742188 C 231.640625 205.742188 229.648438 205.449219 227.601562 205.097656 C 224.148438 204.511719 223.738281 204.21875 221.277344 201.351562 C 219.816406 199.65625 218.644531 198.132812 218.644531 197.898438 C 218.644531 197.664062 219.347656 197.605469 220.28125 197.78125 C 221.160156 197.957031 222.976562 198.25 224.320312 198.425781 Z M 144.828125 200.296875 C 144.359375 200.882812 143.714844 201.644531 143.363281 201.996094 C 143.011719 202.40625 142.015625 203.515625 141.140625 204.570312 C 139.851562 206.148438 138.738281 206.675781 135.050781 207.554688 C 132.59375 208.140625 130.484375 208.550781 130.425781 208.433594 C 130.367188 208.375 131.773438 206.675781 133.644531 204.6875 C 136.632812 201.410156 137.335938 200.941406 140.496094 200.238281 C 145.472656 199.070312 145.824219 199.070312 144.828125 200.296875 Z M 233.863281 200.238281 C 237.667969 201.117188 238.136719 201.351562 241.121094 204.746094 C 242.878906 206.734375 244.285156 208.375 244.226562 208.433594 C 244.167969 208.550781 242.058594 208.140625 239.601562 207.554688 C 235.914062 206.675781 234.800781 206.148438 233.511719 204.570312 C 232.632812 203.515625 231.640625 202.40625 231.289062 201.996094 C 229.882812 200.53125 229.0625 199.304688 229.414062 199.304688 C 229.648438 199.304688 231.640625 199.710938 233.863281 200.238281 Z M 133.179688 202.640625 C 133.179688 202.929688 131.773438 204.570312 130.074219 206.382812 C 127.324219 209.367188 126.621094 209.777344 122.347656 210.949219 C 116.554688 212.585938 105.839844 216.800781 99.226562 220.136719 C 87.8125 225.8125 77.214844 234.589844 75.867188 239.503906 C 74.992188 242.664062 75.050781 243.074219 76.6875 244.65625 C 77.917969 245.941406 78.621094 246.117188 82.132812 246.117188 C 86.933594 246.117188 90.738281 245.066406 97.761719 241.789062 C 105.722656 238.042969 119.128906 228.503906 127.675781 220.546875 C 131.539062 216.917969 131.832031 216.742188 136.515625 215.628906 C 139.03125 215.101562 141.140625 214.695312 141.199219 214.753906 C 141.375 214.925781 132.417969 223.589844 129.023438 226.515625 C 126.152344 229.03125 116.613281 236.054688 111.753906 239.269531 C 106.660156 242.605469 96.882812 247.289062 91.324219 249.042969 C 86.289062 250.625 78.035156 251.210938 75.050781 250.273438 C 67.789062 247.875 68.433594 239.796875 76.628906 231.019531 C 85.996094 221.011719 101.449219 212.175781 120.886719 205.742188 C 131.597656 202.171875 133.179688 201.761719 133.179688 202.640625 Z M 253.765625 205.742188 C 273.203125 212.175781 288.65625 221.011719 298.023438 231.019531 C 304.460938 237.867188 306.335938 244.070312 303.230469 247.816406 C 301.125 250.273438 298.433594 251.035156 292.460938 250.625 C 281.457031 249.980469 269.164062 244.246094 253.183594 232.367188 C 250.136719 230.140625 246.742188 227.449219 245.628906 226.515625 C 242.234375 223.589844 233.277344 214.925781 233.453125 214.753906 C 233.511719 214.695312 235.621094 215.101562 238.136719 215.628906 C 242.820312 216.742188 243.113281 216.917969 246.976562 220.546875 C 255.523438 228.503906 268.929688 238.042969 276.890625 241.789062 C 283.914062 245.066406 287.71875 246.117188 292.519531 246.117188 C 296.03125 246.117188 296.734375 245.941406 297.964844 244.65625 C 299.601562 243.074219 299.660156 242.664062 298.78125 239.503906 C 297.4375 234.589844 286.839844 225.8125 275.425781 220.136719 C 268.8125 216.800781 258.097656 212.585938 252.304688 210.949219 C 248.03125 209.777344 247.328125 209.367188 244.578125 206.382812 C 242.878906 204.570312 241.472656 202.871094 241.472656 202.640625 C 241.472656 201.878906 244.34375 202.640625 253.765625 205.742188 Z M 199.09375 203.164062 C 202.3125 203.515625 202.722656 203.691406 204.300781 205.914062 C 205.296875 207.203125 206.234375 208.550781 206.46875 208.898438 C 206.703125 209.367188 201.023438 209.542969 187.324219 209.542969 C 173.628906 209.542969 167.949219 209.367188 168.183594 208.898438 C 170.757812 204.746094 172.222656 203.457031 174.449219 203.222656 C 178.605469 202.871094 195.519531 202.8125 199.09375 203.164062 Z M 168.769531 205.855469 C 165.667969 209.894531 165.375 210.070312 161.335938 210.480469 C 159.226562 210.714844 157.355469 210.773438 157.238281 210.714844 C 157.121094 210.597656 158.289062 209.015625 159.8125 207.261719 C 162.679688 203.867188 162.15625 204.042969 169.355469 203.515625 C 170.699219 203.398438 170.699219 203.457031 168.769531 205.855469 Z M 214.664062 207.085938 C 217.765625 210.480469 218.117188 211.300781 216.183594 210.773438 C 215.425781 210.597656 213.785156 210.421875 212.4375 210.421875 C 209.804688 210.421875 208.867188 209.777344 205.824219 205.855469 L 203.890625 203.339844 L 207.871094 203.75 C 211.796875 204.101562 211.96875 204.160156 214.664062 207.085938 Z M 159.460938 205.566406 C 155.480469 210.65625 154.660156 211.242188 149.863281 211.941406 C 144.945312 212.644531 144.945312 212.996094 149.570312 207.964844 C 151.675781 205.742188 154.132812 204.804688 158.582031 204.628906 C 160.105469 204.570312 160.164062 204.6875 159.460938 205.566406 Z M 219.875 205.15625 C 223.035156 205.742188 223.738281 206.324219 228.128906 211.359375 C 229.179688 212.527344 229.121094 212.527344 224.789062 211.941406 C 219.992188 211.242188 219.171875 210.65625 215.191406 205.566406 C 214.488281 204.6875 214.546875 204.570312 215.542969 204.570312 C 216.183594 204.570312 218.175781 204.863281 219.875 205.15625 Z M 146.464844 209.425781 C 143.304688 212.996094 143.128906 213.113281 139.148438 213.816406 C 136.925781 214.167969 134.699219 214.636719 134.171875 214.871094 C 133.644531 215.042969 134.875 213.523438 136.867188 211.417969 C 140.378906 207.671875 140.613281 207.554688 144.886719 206.734375 C 147.285156 206.207031 149.394531 205.796875 149.453125 205.796875 C 149.570312 205.742188 148.222656 207.378906 146.464844 209.425781 Z M 237.785156 211.417969 C 239.777344 213.523438 241.003906 215.042969 240.480469 214.871094 C 239.953125 214.636719 237.726562 214.167969 235.503906 213.816406 C 231.582031 213.113281 231.347656 212.996094 228.304688 209.484375 L 225.140625 205.855469 L 229.648438 206.734375 C 234.097656 207.554688 234.214844 207.671875 237.785156 211.417969 Z M 134.40625 211.828125 C 131.070312 215.21875 130.25 215.6875 126.796875 216.566406 C 124.691406 217.09375 122.464844 217.621094 121.878906 217.796875 C 121.292969 217.96875 122.523438 216.390625 124.574219 214.285156 C 128.4375 210.304688 128.964844 210.070312 137.859375 208.140625 C 137.976562 208.082031 136.457031 209.777344 134.40625 211.828125 Z M 250.078125 214.285156 C 252.128906 216.390625 253.355469 217.96875 252.773438 217.796875 C 252.1875 217.621094 249.960938 217.09375 247.855469 216.566406 C 244.402344 215.6875 243.582031 215.21875 240.304688 211.882812 L 236.675781 208.199219 L 241.472656 209.308594 C 246.15625 210.421875 246.449219 210.597656 250.078125 214.285156 Z M 121.175781 215.570312 C 117.605469 218.964844 116.496094 219.667969 112.691406 220.898438 C 97.820312 225.578125 82.25 235 82.25 239.269531 C 82.25 240.734375 82.425781 240.851562 84.882812 240.851562 C 88.394531 240.851562 92.726562 239.15625 98.875 235.292969 C 103.324219 232.484375 110.582031 227.273438 111.519531 226.222656 C 111.695312 226.046875 113.332031 224.640625 115.148438 223.0625 C 117.839844 220.839844 119.539062 219.960938 123.34375 218.847656 C 125.976562 218.085938 128.261719 217.445312 128.378906 217.445312 C 129.546875 217.445312 119.011719 226.398438 111.8125 231.546875 C 99.753906 240.207031 89.15625 244.949219 82.015625 244.949219 C 76.804688 244.949219 75.632812 242.199219 78.796875 237.28125 C 83.421875 230.082031 98.230469 220.953125 115.03125 214.925781 C 119.070312 213.523438 122.757812 212.175781 123.226562 212 C 125.390625 211.242188 124.984375 211.882812 121.175781 215.570312 Z M 259.621094 214.925781 C 276.421875 220.953125 291.230469 230.082031 295.855469 237.28125 C 301.183594 245.53125 293.867188 247.464844 279.816406 241.613281 C 275.191406 239.679688 269.339844 236.226562 262.839844 231.546875 C 255.640625 226.398438 245.101562 217.445312 246.273438 217.445312 C 246.390625 217.445312 248.675781 218.085938 251.308594 218.847656 C 255.113281 219.960938 256.8125 220.839844 259.503906 223.0625 C 261.320312 224.640625 262.957031 226.046875 263.132812 226.222656 C 264.070312 227.273438 271.328125 232.484375 275.777344 235.292969 C 281.925781 239.15625 286.253906 240.851562 289.769531 240.851562 C 292.226562 240.851562 292.402344 240.734375 292.402344 239.269531 C 292.402344 235 276.832031 225.578125 261.960938 220.898438 C 258.097656 219.667969 257.046875 219.023438 253.472656 215.511719 C 248.792969 210.949219 248.617188 211.007812 259.621094 214.925781 Z M 112.691406 223.355469 C 102.386719 232.191406 88.804688 240.089844 84.707031 239.5625 L 83.304688 239.386719 L 84.589844 237.75 C 86.347656 235.585938 92.199219 231.488281 97.46875 228.796875 C 101.332031 226.808594 113.683594 221.597656 114.445312 221.597656 C 114.621094 221.597656 113.800781 222.359375 112.691406 223.355469 Z M 271.914062 226.339844 C 281.046875 230.433594 289.125 235.644531 290.644531 238.511719 C 291.171875 239.5625 291.113281 239.679688 289.828125 239.679688 C 285.144531 239.679688 271.738281 231.839844 261.960938 223.296875 L 259.914062 221.539062 L 263.71875 222.945312 C 265.824219 223.707031 269.515625 225.226562 271.914062 226.339844 Z M 271.914062 226.339844 " fill-opacity="1" fill-rule="nonzero"/></g><g fill="#ffffe8" fill-opacity="1"><g transform="translate(109.476957, 55.60687)"><g><path d="M 11.8125 -10.03125 L 11.8125 -9.921875 C 13.207031 -9.796875 14.195312 -9.304688 14.78125 -8.453125 C 15.375 -7.609375 15.671875 -6.390625 15.671875 -4.796875 C 15.671875 -2.859375 15.210938 -1.535156 14.296875 -0.828125 C 13.390625 -0.128906 11.800781 0.21875 9.53125 0.21875 C 6.445312 0.21875 4.078125 0.144531 2.421875 0 L 2.421875 -19.234375 C 3.890625 -19.378906 5.972656 -19.453125 8.671875 -19.453125 C 11.066406 -19.453125 12.734375 -19.101562 13.671875 -18.40625 C 14.609375 -17.707031 15.078125 -16.382812 15.078125 -14.4375 C 15.078125 -13.039062 14.816406 -11.984375 14.296875 -11.265625 C 13.773438 -10.554688 12.945312 -10.144531 11.8125 -10.03125 Z M 4.828125 -10.90625 L 8.953125 -10.90625 C 10.378906 -10.914062 11.363281 -11.144531 11.90625 -11.59375 C 12.445312 -12.039062 12.71875 -12.894531 12.71875 -14.15625 C 12.71875 -15.4375 12.421875 -16.289062 11.828125 -16.71875 C 11.242188 -17.144531 10.15625 -17.359375 8.5625 -17.359375 L 4.828125 -17.359375 Z M 4.828125 -9.03125 L 4.828125 -1.890625 C 5.585938 -1.878906 7.023438 -1.875 9.140625 -1.875 C 10.703125 -1.875 11.765625 -2.09375 12.328125 -2.53125 C 12.898438 -2.976562 13.1875 -3.875 13.1875 -5.21875 C 13.1875 -6.6875 12.882812 -7.675781 12.28125 -8.1875 C 11.675781 -8.707031 10.570312 -8.988281 8.96875 -9.03125 Z M 4.828125 -9.03125 "/></g></g></g><g fill="#ffffe8" fill-opacity="1"><g transform="translate(109.457353, 94.500915)"><g><path d="M 12.625 -6.015625 L 4.703125 -6.015625 L 2.8125 0 L 0.28125 0 L 6.46875 -18.5625 C 6.582031 -19.007812 6.890625 -19.234375 7.390625 -19.234375 L 9.953125 -19.234375 C 10.453125 -19.234375 10.757812 -19.007812 10.875 -18.5625 L 17.0625 0 L 14.515625 0 Z M 11.953125 -8.140625 L 9.53125 -15.78125 C 9.363281 -16.257812 9.207031 -16.78125 9.0625 -17.34375 L 8.28125 -17.34375 L 7.8125 -15.78125 L 5.375 -8.140625 Z M 11.953125 -8.140625 "/></g></g></g><g fill="#ffffe8" fill-opacity="1"><g transform="translate(109.476957, 133.394961)"><g><path d="M 11.8125 -10.03125 L 11.8125 -9.921875 C 13.207031 -9.796875 14.195312 -9.304688 14.78125 -8.453125 C 15.375 -7.609375 15.671875 -6.390625 15.671875 -4.796875 C 15.671875 -2.859375 15.210938 -1.535156 14.296875 -0.828125 C 13.390625 -0.128906 11.800781 0.21875 9.53125 0.21875 C 6.445312 0.21875 4.078125 0.144531 2.421875 0 L 2.421875 -19.234375 C 3.890625 -19.378906 5.972656 -19.453125 8.671875 -19.453125 C 11.066406 -19.453125 12.734375 -19.101562 13.671875 -18.40625 C 14.609375 -17.707031 15.078125 -16.382812 15.078125 -14.4375 C 15.078125 -13.039062 14.816406 -11.984375 14.296875 -11.265625 C 13.773438 -10.554688 12.945312 -10.144531 11.8125 -10.03125 Z M 4.828125 -10.90625 L 8.953125 -10.90625 C 10.378906 -10.914062 11.363281 -11.144531 11.90625 -11.59375 C 12.445312 -12.039062 12.71875 -12.894531 12.71875 -14.15625 C 12.71875 -15.4375 12.421875 -16.289062 11.828125 -16.71875 C 11.242188 -17.144531 10.15625 -17.359375 8.5625 -17.359375 L 4.828125 -17.359375 Z M 4.828125 -9.03125 L 4.828125 -1.890625 C 5.585938 -1.878906 7.023438 -1.875 9.140625 -1.875 C 10.703125 -1.875 11.765625 -2.09375 12.328125 -2.53125 C 12.898438 -2.976562 13.1875 -3.875 13.1875 -5.21875 C 13.1875 -6.6875 12.882812 -7.675781 12.28125 -8.1875 C 11.675781 -8.707031 10.570312 -8.988281 8.96875 -9.03125 Z M 4.828125 -9.03125 "/></g></g></g><g fill="#ffffe8" fill-opacity="1"><g transform="translate(109.457353, 172.289006)"><g><path d="M 12.625 -6.015625 L 4.703125 -6.015625 L 2.8125 0 L 0.28125 0 L 6.46875 -18.5625 C 6.582031 -19.007812 6.890625 -19.234375 7.390625 -19.234375 L 9.953125 -19.234375 C 10.453125 -19.234375 10.757812 -19.007812 10.875 -18.5625 L 17.0625 0 L 14.515625 0 Z M 11.953125 -8.140625 L 9.53125 -15.78125 C 9.363281 -16.257812 9.207031 -16.78125 9.0625 -17.34375 L 8.28125 -17.34375 L 7.8125 -15.78125 L 5.375 -8.140625 Z M 11.953125 -8.140625 "/></g></g></g><g fill="#ffffe8" fill-opacity="1"><g transform="translate(109.33973, 174.280436)"><g><path d="M 12.625 -6.015625 L 4.703125 -6.015625 L 2.8125 0 L 0.28125 0 L 6.46875 -18.5625 C 6.582031 -19.007812 6.890625 -19.234375 7.390625 -19.234375 L 9.953125 -19.234375 C 10.453125 -19.234375 10.757812 -19.007812 10.875 -18.5625 L 17.0625 0 L 14.515625 0 Z M 11.953125 -8.140625 L 9.53125 -15.78125 C 9.363281 -16.257812 9.207031 -16.78125 9.0625 -17.34375 L 8.28125 -17.34375 L 7.8125 -15.78125 L 5.375 -8.140625 Z M 11.953125 -8.140625 "/></g></g></g><g fill="#ffffe8" fill-opacity="1"><g transform="translate(108.810426, 213.174481)"><g><path d="M 16.203125 -19.234375 L 16.203125 0 L 13.75 0 L 13.75 -9.234375 L 4.875 -9.234375 L 4.875 0 L 2.421875 0 L 2.421875 -19.234375 L 4.875 -19.234375 L 4.875 -11.34375 L 13.75 -11.34375 L 13.75 -19.234375 Z M 16.203125 -19.234375 "/></g></g></g><g fill="#ffffe8" fill-opacity="1"><g transform="translate(105.899254, 252.068526)"><g><path d="M 17.84375 -19.234375 L 20.59375 -19.234375 C 21.269531 -19.234375 21.609375 -18.890625 21.609375 -18.203125 L 22.40625 0 L 19.953125 0 L 19.265625 -17.203125 L 18.671875 -17.203125 L 14.390625 -3.015625 C 14.234375 -2.453125 13.878906 -2.171875 13.328125 -2.171875 L 11.125 -2.171875 C 10.550781 -2.171875 10.175781 -2.453125 10 -3.015625 L 5.71875 -17.203125 L 5.15625 -17.203125 L 4.484375 0 L 2.03125 0 L 2.78125 -18.203125 C 2.820312 -18.890625 3.164062 -19.234375 3.8125 -19.234375 L 6.609375 -19.234375 C 7.128906 -19.234375 7.472656 -18.953125 7.640625 -18.390625 L 11.234375 -6.65625 C 11.347656 -6.320312 11.492188 -5.828125 11.671875 -5.171875 C 11.847656 -4.515625 11.941406 -4.144531 11.953125 -4.0625 L 12.453125 -4.0625 C 12.515625 -4.269531 12.625 -4.675781 12.78125 -5.28125 C 12.9375 -5.882812 13.070312 -6.363281 13.1875 -6.71875 L 16.78125 -18.390625 C 16.925781 -18.953125 17.28125 -19.234375 17.84375 -19.234375 Z M 17.84375 -19.234375 "/></g></g></g><g fill="#ffffe8" fill-opacity="1"><g transform="translate(110.319923, 290.962572)"><g><path d="M 14.109375 -2.03125 L 14.21875 -0.140625 C 12.507812 -0.0234375 9.757812 0.03125 5.96875 0.03125 C 4.832031 0.03125 3.929688 -0.269531 3.265625 -0.875 C 2.609375 -1.476562 2.273438 -2.289062 2.265625 -3.3125 L 2.265625 -15.921875 C 2.273438 -16.941406 2.609375 -17.753906 3.265625 -18.359375 C 3.929688 -18.960938 4.832031 -19.265625 5.96875 -19.265625 C 9.757812 -19.265625 12.507812 -19.207031 14.21875 -19.09375 L 14.109375 -17.171875 L 6.390625 -17.171875 C 5.265625 -17.171875 4.703125 -16.554688 4.703125 -15.328125 L 4.703125 -11.15625 L 13.015625 -11.15625 L 13.015625 -9.171875 L 4.703125 -9.171875 L 4.703125 -3.90625 C 4.703125 -2.65625 5.265625 -2.03125 6.390625 -2.03125 Z M 14.109375 -2.03125 "/></g></g></g><g fill="#ffffe8" fill-opacity="1"><g transform="translate(108.869238, 329.856617)"><g><path d="M 2.421875 0 L 2.421875 -19.234375 C 4.835938 -19.398438 7.125 -19.484375 9.28125 -19.484375 C 12.050781 -19.484375 13.992188 -18.757812 15.109375 -17.3125 C 16.222656 -15.875 16.78125 -13.304688 16.78125 -9.609375 C 16.78125 -5.910156 16.222656 -3.34375 15.109375 -1.90625 C 13.992188 -0.46875 12.050781 0.25 9.28125 0.25 C 7.125 0.25 4.835938 0.164062 2.421875 0 Z M 4.875 -17.3125 L 4.875 -1.953125 C 6.550781 -1.910156 8.019531 -1.890625 9.28125 -1.890625 C 11.125 -1.890625 12.40625 -2.453125 13.125 -3.578125 C 13.851562 -4.703125 14.21875 -6.710938 14.21875 -9.609375 C 14.21875 -12.515625 13.851562 -14.53125 13.125 -15.65625 C 12.40625 -16.789062 11.125 -17.359375 9.28125 -17.359375 C 8.09375 -17.359375 6.625 -17.34375 4.875 -17.3125 Z M 4.875 -17.3125 "/></g></g></g><g fill="#ffffe8" fill-opacity="1"><g transform="translate(178.089418, 253.717457)"><g><path d="M 2.421875 0 L 2.421875 -19.234375 C 4.835938 -19.398438 7.125 -19.484375 9.28125 -19.484375 C 12.050781 -19.484375 13.992188 -18.757812 15.109375 -17.3125 C 16.222656 -15.875 16.78125 -13.304688 16.78125 -9.609375 C 16.78125 -5.910156 16.222656 -3.34375 15.109375 -1.90625 C 13.992188 -0.46875 12.050781 0.25 9.28125 0.25 C 7.125 0.25 4.835938 0.164062 2.421875 0 Z M 4.875 -17.3125 L 4.875 -1.953125 C 6.550781 -1.910156 8.019531 -1.890625 9.28125 -1.890625 C 11.125 -1.890625 12.40625 -2.453125 13.125 -3.578125 C 13.851562 -4.703125 14.21875 -6.710938 14.21875 -9.609375 C 14.21875 -12.515625 13.851562 -14.53125 13.125 -15.65625 C 12.40625 -16.789062 11.125 -17.359375 9.28125 -17.359375 C 8.09375 -17.359375 6.625 -17.34375 4.875 -17.3125 Z M 4.875 -17.3125 "/></g></g></g><g fill="#ffffe8" fill-opacity="1"><g transform="translate(179.696934, 292.611502)"><g><path d="M 14.109375 -2.03125 L 14.21875 -0.140625 C 12.507812 -0.0234375 9.757812 0.03125 5.96875 0.03125 C 4.832031 0.03125 3.929688 -0.269531 3.265625 -0.875 C 2.609375 -1.476562 2.273438 -2.289062 2.265625 -3.3125 L 2.265625 -15.921875 C 2.273438 -16.941406 2.609375 -17.753906 3.265625 -18.359375 C 3.929688 -18.960938 4.832031 -19.265625 5.96875 -19.265625 C 9.757812 -19.265625 12.507812 -19.207031 14.21875 -19.09375 L 14.109375 -17.171875 L 6.390625 -17.171875 C 5.265625 -17.171875 4.703125 -16.554688 4.703125 -15.328125 L 4.703125 -11.15625 L 13.015625 -11.15625 L 13.015625 -9.171875 L 4.703125 -9.171875 L 4.703125 -3.90625 C 4.703125 -2.65625 5.265625 -2.03125 6.390625 -2.03125 Z M 14.109375 -2.03125 "/></g></g></g><g fill="#ffffe8" fill-opacity="1"><g transform="translate(179.0108, 331.505548)"><g><path d="M 16.5 -19.234375 L 10.671875 -0.703125 C 10.503906 -0.234375 10.191406 0 9.734375 0 L 7.25 0 C 6.75 0 6.429688 -0.234375 6.296875 -0.703125 L 0.46875 -19.234375 L 3.015625 -19.234375 L 7.546875 -3.984375 C 7.804688 -3.054688 7.992188 -2.359375 8.109375 -1.890625 L 8.859375 -1.890625 C 9.046875 -2.648438 9.242188 -3.359375 9.453125 -4.015625 L 13.96875 -19.234375 Z M 16.5 -19.234375 "/></g></g></g><g clip-path="url(#b859600e1a)"><path fill="#ffffff" d="M 183.34375 29.015625 C 179.949219 29.890625 177.726562 31.238281 174.273438 34.515625 C 166.542969 41.769531 161.746094 53.710938 159.8125 70.5625 C 157.296875 91.746094 160.984375 119.132812 169.53125 142.421875 L 170.640625 145.523438 L 166.601562 153.25 C 161.570312 162.964844 160.574219 164.71875 157.414062 169.632812 C 156.007812 171.800781 154.835938 173.730469 154.835938 173.90625 C 154.835938 174.140625 151.734375 178.820312 149.570312 181.804688 C 149.394531 182.039062 146.464844 182.800781 143.128906 183.503906 C 139.734375 184.207031 135.519531 185.140625 133.761719 185.609375 C 123.226562 188.535156 119.246094 189.824219 112.398438 192.457031 C 83.832031 203.515625 63.050781 220.019531 56.140625 237.046875 C 54.796875 240.441406 54.503906 242.023438 54.445312 246.410156 C 54.445312 251.269531 54.621094 251.96875 56.257812 254.894531 C 59.828125 261.273438 65.800781 264.199219 76.101562 264.667969 C 89.390625 265.3125 104.203125 260.746094 120.59375 250.917969 C 125.042969 248.285156 131.246094 244.1875 133.46875 242.488281 C 145.824219 232.953125 157.53125 221.773438 165.257812 212.175781 L 166.429688 210.714844 L 208.222656 210.714844 L 209.394531 212.175781 C 217.121094 221.773438 228.828125 232.953125 241.179688 242.488281 C 243.40625 244.1875 249.609375 248.285156 254.058594 250.917969 C 270.449219 260.746094 285.261719 265.3125 298.550781 264.667969 C 308.851562 264.199219 314.824219 261.273438 318.394531 254.894531 C 320.03125 251.96875 320.207031 251.269531 320.207031 246.410156 C 320.148438 242.023438 319.855469 240.441406 318.511719 237.046875 C 311.601562 220.019531 290.820312 203.515625 262.253906 192.457031 C 255.40625 189.824219 251.425781 188.535156 240.886719 185.609375 C 239.132812 185.140625 234.917969 184.207031 231.523438 183.503906 C 228.1875 182.800781 225.257812 182.039062 225.082031 181.804688 C 222.917969 178.820312 219.816406 174.140625 219.816406 173.90625 C 219.816406 173.730469 218.644531 171.800781 217.238281 169.632812 C 214.078125 164.71875 213.082031 162.964844 208.046875 153.25 L 204.007812 145.523438 L 205.121094 142.421875 C 205.765625 140.726562 207.054688 136.6875 207.988281 133.46875 C 218.175781 99.585938 218.234375 67.167969 208.222656 45.398438 C 205.296875 39.078125 199.152344 32.234375 194.46875 30.183594 C 191.363281 28.78125 186.332031 28.3125 183.34375 29.015625 Z M 193.824219 31.648438 C 209.453125 38.613281 217.824219 69.976562 213.140625 104.210938 C 211.386719 116.734375 207.289062 133.585938 204.007812 141.664062 L 203.308594 143.417969 L 201.550781 139.730469 L 199.792969 136.101562 L 201.902344 128.613281 C 206.703125 111.875 208.691406 98.300781 208.691406 83.027344 C 208.691406 66.699219 206.234375 54.410156 201.375 46.277344 C 197.101562 39.195312 193.121094 36.386719 187.324219 36.386719 C 181.53125 36.386719 177.550781 39.195312 173.277344 46.277344 C 168.417969 54.410156 165.960938 66.699219 165.960938 83.027344 C 165.960938 98.300781 167.949219 111.875 172.75 128.613281 L 174.855469 136.101562 L 173.101562 139.730469 L 171.34375 143.417969 L 170.640625 141.664062 C 168.828125 137.15625 164.671875 122.351562 163.324219 115.269531 C 156.652344 81.097656 161.160156 49.554688 174.566406 36.269531 C 181.003906 29.832031 186.683594 28.488281 193.824219 31.648438 Z M 190.078125 37.792969 C 193.882812 38.84375 198.449219 43.703125 201.375 49.730469 C 205.882812 59.035156 207.523438 68.046875 207.523438 83.144531 C 207.523438 97.1875 205.589844 110.355469 201.316406 126.097656 C 200.203125 130.132812 199.210938 133.46875 199.09375 133.585938 C 198.976562 133.703125 198.15625 131.832031 197.277344 129.375 L 195.636719 124.867188 L 197.453125 117.496094 C 201.257812 102.28125 201.960938 96.835938 201.960938 81.097656 C 201.960938 65.941406 201.550781 62.605469 198.742188 55.230469 C 197.21875 51.132812 194.351562 46.804688 192.125 45.164062 C 189.84375 43.46875 184.808594 43.46875 182.527344 45.164062 C 180.300781 46.804688 177.433594 51.132812 175.910156 55.230469 C 173.101562 62.605469 172.691406 65.941406 172.691406 81.097656 C 172.691406 96.835938 173.394531 102.28125 177.199219 117.496094 L 179.011719 124.867188 L 177.375 129.375 C 176.496094 131.832031 175.675781 133.703125 175.558594 133.585938 C 175.089844 133.117188 171.285156 118.429688 170.117188 112.695312 C 167.246094 98.183594 166.253906 80.042969 167.773438 68.984375 C 169.472656 56.578125 173.628906 46.394531 179.128906 41.421875 C 183.402344 37.5 185.980469 36.679688 190.078125 37.792969 Z M 189.902344 45.632812 C 193.882812 47.742188 197.277344 53.59375 199.445312 62.195312 C 200.613281 66.816406 200.789062 68.808594 200.789062 81.097656 C 200.730469 92.742188 200.554688 95.960938 199.445312 102.164062 C 197.628906 112.109375 195.171875 122.058594 194.585938 121.707031 C 194.292969 121.53125 193.53125 119.542969 192.828125 117.203125 L 191.597656 112.988281 L 192.828125 107.429688 C 196.222656 91.921875 197.335938 75.300781 195.578125 65.296875 C 194 56.167969 191.074219 51.25 187.324219 51.25 C 178.078125 51.25 175.441406 78.402344 181.824219 107.429688 L 183.050781 112.988281 L 181.824219 117.203125 C 181.121094 119.542969 180.359375 121.53125 180.066406 121.707031 C 179.480469 122.058594 177.023438 112.109375 175.207031 102.164062 C 174.097656 95.960938 173.921875 92.742188 173.863281 81.097656 C 173.863281 68.808594 174.039062 66.816406 175.207031 62.195312 C 177.316406 53.769531 180.359375 48.324219 184.398438 45.925781 C 186.507812 44.582031 187.734375 44.523438 189.902344 45.632812 Z M 189.960938 54.175781 C 196.164062 60.789062 196.808594 84.488281 191.539062 107.429688 L 190.78125 110.648438 L 189.375 105.03125 C 188.027344 99.46875 188.027344 99.296875 188.964844 94.496094 C 190.605469 86.070312 191.304688 78.285156 191.015625 70.621094 C 190.664062 61.902344 189.726562 58.859375 187.324219 58.859375 C 184.925781 58.859375 183.988281 61.902344 183.636719 70.621094 C 183.34375 78.285156 184.046875 86.070312 185.6875 94.496094 C 186.625 99.296875 186.625 99.46875 185.277344 105.03125 L 183.871094 110.648438 L 183.109375 107.429688 C 180.125 94.320312 178.664062 76.882812 179.949219 67.929688 C 181.179688 59.152344 184.398438 52.421875 187.324219 52.421875 C 187.851562 52.421875 189.082031 53.242188 189.960938 54.175781 Z M 189.433594 65.238281 C 190.3125 69.449219 189.84375 81.621094 188.4375 90.167969 C 187.207031 97.597656 187.148438 97.421875 185.511719 84.957031 C 184.339844 75.710938 184.574219 65.589844 186.097656 62.078125 C 187.035156 59.914062 187.148438 59.796875 187.910156 60.847656 C 188.378906 61.433594 189.023438 63.421875 189.433594 65.238281 Z M 189.316406 115.5625 C 188.964844 117.320312 188.320312 119.660156 187.96875 120.828125 L 187.207031 122.878906 L 185.921875 118.019531 L 184.632812 113.164062 L 185.980469 107.605469 L 187.265625 102.046875 L 188.613281 107.195312 C 189.84375 111.757812 189.902344 112.8125 189.316406 115.5625 Z M 185.277344 120.421875 L 186.507812 124.925781 L 185.21875 129.082031 C 184.457031 131.304688 183.695312 133.175781 183.519531 133.175781 C 183.34375 133.175781 182.585938 131.363281 181.882812 129.140625 L 180.535156 125.042969 L 182.175781 120.070312 C 183.050781 117.320312 183.871094 115.269531 183.871094 115.503906 C 183.929688 115.738281 184.574219 117.960938 185.277344 120.421875 Z M 192.828125 128.90625 C 192.066406 131.246094 191.363281 133.175781 191.132812 133.175781 C 190.898438 133.175781 190.136719 131.246094 189.433594 128.90625 L 188.144531 124.691406 L 189.316406 120.886719 C 189.960938 118.78125 190.546875 116.558594 190.546875 115.914062 C 190.605469 115.269531 191.363281 116.96875 192.359375 119.71875 L 194.117188 124.691406 Z M 181.355469 131.773438 C 182.703125 135.753906 182.703125 135.8125 181.648438 138.445312 C 181.0625 139.90625 180.417969 141.546875 180.242188 142.070312 C 179.65625 143.828125 179.070312 143.242188 177.726562 139.554688 C 176.496094 136.277344 176.4375 135.871094 177.257812 133.585938 C 178.722656 129.550781 179.65625 127.382812 179.832031 127.558594 C 179.949219 127.617188 180.59375 129.550781 181.355469 131.773438 Z M 189.316406 132.476562 L 190.488281 135.519531 L 188.90625 139.964844 L 187.382812 144.414062 L 185.980469 140.667969 C 184.222656 136.101562 184.222656 135.519531 185.921875 130.894531 C 186.976562 128.027344 187.324219 127.382812 187.675781 128.261719 C 187.910156 128.847656 188.613281 130.777344 189.316406 132.476562 Z M 197.511719 133.878906 C 198.15625 135.8125 198.097656 136.511719 196.925781 139.613281 C 195.578125 143.242188 194.996094 143.828125 194.410156 142.070312 C 194.234375 141.546875 193.589844 139.90625 193.003906 138.445312 C 191.949219 135.8125 191.949219 135.8125 193.355469 131.539062 L 194.761719 127.207031 L 195.8125 129.492188 C 196.339844 130.71875 197.101562 132.710938 197.511719 133.878906 Z M 177.023438 141.371094 C 178.605469 145.464844 178.546875 146.285156 176.554688 150.03125 L 174.972656 153.132812 L 173.511719 149.445312 L 171.988281 145.699219 L 173.746094 141.78125 C 174.738281 139.613281 175.617188 137.917969 175.675781 138.035156 C 175.734375 138.09375 176.378906 139.613281 177.023438 141.371094 Z M 185.21875 142.304688 L 186.507812 145.875 L 184.925781 149.738281 C 184.046875 151.902344 183.226562 153.542969 183.109375 153.425781 C 182.996094 153.308594 182.292969 151.550781 181.53125 149.503906 C 180.125 145.523438 180.125 145.40625 181.824219 141.546875 C 182.46875 140.199219 182.9375 138.738281 182.9375 138.386719 C 182.9375 136.980469 183.871094 138.679688 185.21875 142.304688 Z M 192.886719 141.664062 C 194.527344 145.40625 194.527344 145.582031 193.121094 149.503906 C 192.359375 151.550781 191.65625 153.308594 191.539062 153.425781 C 191.421875 153.542969 190.605469 151.902344 189.726562 149.679688 L 188.144531 145.699219 L 189.257812 142.832031 C 189.84375 141.195312 190.546875 139.378906 190.839844 138.738281 C 191.191406 137.800781 191.304688 137.742188 191.539062 138.445312 C 191.714844 138.914062 192.300781 140.375 192.886719 141.664062 Z M 201.140625 149.386719 L 199.675781 153.132812 L 198.097656 150.03125 C 196.105469 146.226562 196.046875 145.640625 197.6875 141.195312 L 198.976562 137.683594 L 200.789062 141.664062 L 202.664062 145.640625 Z M 189.023438 159.042969 L 187.265625 162.554688 L 185.628906 158.984375 L 183.929688 155.472656 L 185.628906 151.375 L 187.324219 147.28125 L 189.023438 151.433594 L 190.722656 155.53125 Z M 172.925781 151.550781 L 174.214844 155.238281 L 171.753906 159.863281 C 170.410156 162.378906 167.070312 168.230469 164.261719 172.792969 C 159.578125 180.578125 159.109375 181.164062 157.472656 181.164062 C 156.535156 181.164062 154.71875 181.339844 153.492188 181.570312 L 151.265625 181.921875 L 155.070312 176.011719 C 157.238281 172.734375 159.519531 169.050781 160.222656 167.878906 C 164.203125 160.796875 165.667969 158.105469 168.183594 153.191406 C 169.648438 150.265625 171.050781 147.808594 171.226562 147.808594 C 171.460938 147.808594 172.164062 149.503906 172.925781 151.550781 Z M 181.121094 151.84375 L 182.410156 155.355469 L 180.710938 158.75 L 179.011719 162.085938 L 177.84375 159.804688 C 175.734375 155.589844 175.675781 155.003906 177.492188 151.316406 C 178.371094 149.445312 179.304688 148.039062 179.480469 148.15625 C 179.65625 148.273438 180.417969 149.914062 181.121094 151.84375 Z M 198.742188 155.0625 C 198.742188 155.414062 198.039062 157.167969 197.21875 158.925781 L 195.695312 162.144531 L 194 158.75 L 192.242188 155.355469 L 193.472656 152.078125 C 194.175781 150.265625 194.878906 148.507812 195.054688 148.214844 C 195.347656 147.691406 198.742188 153.894531 198.742188 155.0625 Z M 206.46875 153.191406 C 208.984375 158.105469 210.449219 160.796875 214.429688 167.878906 C 215.132812 169.050781 217.414062 172.734375 219.582031 176.011719 L 223.386719 181.921875 L 221.160156 181.570312 C 219.933594 181.339844 218.117188 181.164062 217.179688 181.164062 C 215.542969 181.164062 215.074219 180.578125 210.390625 172.792969 C 207.582031 168.230469 204.242188 162.378906 202.898438 159.863281 L 200.4375 155.238281 L 201.726562 151.550781 C 202.488281 149.503906 203.191406 147.808594 203.425781 147.808594 C 203.601562 147.808594 205.003906 150.265625 206.46875 153.191406 Z M 177.316406 165.539062 C 176.261719 167.585938 173.160156 172.792969 170.46875 177.125 C 168.828125 179.757812 168.710938 179.816406 165.257812 180.226562 C 163.265625 180.402344 161.628906 180.519531 161.511719 180.402344 C 161.453125 180.34375 163.324219 177.066406 165.726562 173.085938 C 168.066406 169.167969 171.167969 163.78125 172.515625 161.207031 L 174.972656 156.527344 L 176.613281 160.097656 C 178.136719 163.546875 178.195312 163.78125 177.316406 165.539062 Z M 202.195312 161.265625 C 203.542969 163.839844 206.585938 169.167969 208.925781 173.085938 C 211.328125 177.066406 213.199219 180.34375 213.140625 180.402344 C 213.023438 180.519531 211.386719 180.402344 209.394531 180.226562 C 205.472656 179.816406 206 180.34375 200.378906 170.921875 C 196.164062 163.78125 196.222656 164.191406 198.039062 160.15625 C 198.917969 158.222656 199.617188 156.585938 199.675781 156.585938 C 199.734375 156.585938 200.847656 158.691406 202.195312 161.265625 Z M 184.925781 167.234375 L 183.285156 170.628906 L 181.648438 167.878906 C 179.65625 164.425781 179.65625 163.722656 181.53125 159.980469 L 183.109375 156.9375 L 184.808594 160.386719 L 186.566406 163.78125 Z M 193.179688 160.097656 C 194.996094 163.722656 194.996094 164.425781 193.003906 167.878906 L 191.363281 170.628906 L 189.726562 167.234375 L 188.085938 163.839844 L 189.726562 160.503906 C 190.664062 158.691406 191.421875 157.167969 191.539062 157.167969 C 191.597656 157.167969 192.359375 158.457031 193.179688 160.097656 Z M 189.257812 175.019531 C 188.4375 176.539062 187.558594 177.769531 187.324219 177.769531 C 187.09375 177.769531 186.214844 176.539062 185.394531 175.078125 L 183.871094 172.382812 L 185.570312 168.816406 L 187.265625 165.246094 L 189.023438 168.816406 L 190.78125 172.328125 Z M 180.769531 168.875 L 182.410156 171.859375 L 180.359375 175.542969 L 178.253906 179.289062 L 174.449219 179.523438 C 172.339844 179.582031 170.640625 179.582031 170.640625 179.464844 C 170.640625 179.289062 171.285156 178.238281 172.046875 177.125 C 172.808594 175.953125 174.566406 172.96875 175.96875 170.511719 C 177.375 167.996094 178.664062 166.007812 178.839844 165.949219 C 179.011719 165.949219 179.890625 167.292969 180.769531 168.875 Z M 198.683594 170.511719 C 200.085938 172.96875 201.84375 175.953125 202.605469 177.125 C 203.367188 178.238281 204.007812 179.289062 204.007812 179.464844 C 204.007812 179.582031 202.3125 179.582031 200.203125 179.523438 L 196.398438 179.289062 L 194.292969 175.542969 L 192.242188 171.859375 L 193.882812 168.875 C 194.761719 167.292969 195.636719 165.949219 195.8125 165.949219 C 195.988281 166.007812 197.277344 167.996094 198.683594 170.511719 Z M 184.867188 176.773438 L 186.390625 179.40625 L 183.167969 179.40625 C 181.414062 179.40625 180.007812 179.289062 180.007812 179.054688 C 180.007812 178.46875 182.644531 174.140625 183.050781 174.140625 C 183.226562 174.140625 184.105469 175.3125 184.867188 176.773438 Z M 193.355469 176.480469 C 194.058594 177.710938 194.644531 178.878906 194.644531 179.054688 C 194.644531 179.289062 193.238281 179.40625 191.480469 179.40625 L 188.261719 179.40625 L 189.785156 176.773438 C 190.546875 175.3125 191.421875 174.140625 191.597656 174.140625 C 191.832031 174.140625 192.59375 175.195312 193.355469 176.480469 Z M 175.617188 183.035156 C 174.796875 184.441406 173.921875 185.84375 173.6875 186.253906 C 173.453125 186.605469 171.460938 187.074219 169.238281 187.308594 C 165.140625 187.773438 164.90625 187.65625 166.71875 185.550781 C 166.953125 185.199219 167.714844 184.148438 168.300781 183.09375 C 169.472656 181.164062 170.410156 180.8125 174.625 180.636719 L 177.140625 180.578125 Z M 184.28125 183.503906 C 182.878906 186.078125 182.46875 186.429688 180.300781 186.78125 C 178.953125 186.957031 177.199219 187.015625 176.378906 186.898438 L 174.855469 186.722656 L 176.847656 183.621094 L 178.839844 180.578125 L 185.863281 180.578125 Z M 189.023438 183.621094 L 190.664062 186.429688 L 184.046875 186.429688 L 185.6875 183.5625 C 186.566406 181.921875 187.324219 180.695312 187.382812 180.753906 C 187.382812 180.8125 188.144531 182.097656 189.023438 183.621094 Z M 197.804688 183.621094 L 199.792969 186.722656 L 198.273438 186.898438 C 197.453125 187.015625 195.695312 186.957031 194.351562 186.78125 C 192.183594 186.429688 191.773438 186.078125 190.371094 183.503906 L 188.789062 180.578125 L 195.8125 180.578125 Z M 203.425781 180.929688 C 204.652344 181.222656 205.648438 181.921875 206.351562 183.152344 C 206.996094 184.148438 207.699219 185.199219 207.929688 185.550781 C 209.746094 187.65625 209.511719 187.773438 205.414062 187.308594 C 203.191406 187.074219 201.199219 186.605469 200.964844 186.253906 C 200.730469 185.84375 199.851562 184.441406 199.035156 183.035156 L 197.511719 180.578125 L 199.503906 180.578125 C 200.613281 180.578125 202.371094 180.753906 203.425781 180.929688 Z M 167.011719 182.449219 C 163.675781 188.183594 164.144531 187.890625 158.757812 188.476562 L 155.421875 188.828125 L 157.765625 185.433594 C 160.222656 181.921875 160.867188 181.628906 166.429688 181.28125 C 167.65625 181.164062 167.714844 181.28125 167.011719 182.449219 Z M 212.847656 181.746094 C 214.019531 181.746094 214.839844 182.507812 216.769531 185.316406 L 219.230469 188.828125 L 215.835938 188.476562 C 210.507812 187.890625 210.976562 188.183594 207.640625 182.390625 C 206.820312 180.988281 206.820312 180.988281 209.042969 181.339844 C 210.332031 181.570312 212.027344 181.746094 212.847656 181.746094 Z M 157.765625 182.625 C 157.765625 183.09375 155.890625 185.960938 155.011719 186.898438 C 154.601562 187.308594 154.078125 188.007812 153.84375 188.417969 C 153.375 189.121094 146.113281 190.757812 145.589844 190.292969 C 145.0625 189.707031 150.269531 183.503906 151.5 183.269531 C 152.203125 183.09375 153.316406 182.859375 153.960938 182.742188 C 155.773438 182.332031 157.765625 182.273438 157.765625 182.625 Z M 223.972656 183.5625 C 225.023438 184.089844 229.414062 189.941406 229.0625 190.292969 C 228.535156 190.757812 221.277344 189.0625 220.808594 188.417969 C 220.574219 188.007812 220.050781 187.308594 219.640625 186.898438 C 218.703125 185.902344 216.886719 183.09375 216.886719 182.566406 C 216.886719 182.097656 222.742188 182.917969 223.972656 183.5625 Z M 147.8125 184.265625 C 147.8125 184.382812 146.757812 185.902344 145.472656 187.597656 L 143.070312 190.757812 L 134.464844 193.042969 C 126.09375 195.207031 113.859375 199.070312 109.761719 200.882812 C 102.679688 203.984375 94.894531 207.90625 90.796875 210.421875 C 70.601562 222.59375 59.300781 237.28125 61.761719 248.226562 C 62.640625 252.144531 64.804688 254.777344 68.726562 256.59375 C 71.710938 257.996094 72.589844 258.113281 79.324219 258.113281 C 87.050781 258.054688 90.445312 257.410156 98.347656 254.484375 C 108.183594 250.859375 120.359375 243.777344 130.777344 235.703125 C 137.683594 230.316406 139.382812 228.796875 148.105469 220.019531 L 155.714844 212.292969 L 159.695312 211.882812 C 162.332031 211.59375 163.617188 211.652344 163.617188 212.058594 C 163.617188 212.820312 144.945312 231.722656 141.492188 234.472656 C 140.085938 235.585938 138.445312 236.871094 137.859375 237.398438 C 137.277344 237.867188 136.046875 238.804688 135.226562 239.445312 C 134.347656 240.03125 132.710938 241.320312 131.539062 242.199219 C 127.910156 245.007812 115.03125 252.789062 109.761719 255.304688 C 99.285156 260.339844 86.757812 263.671875 78.09375 263.671875 C 66.738281 263.671875 58.425781 258.875 56.140625 250.917969 C 53.507812 241.90625 60.238281 228.328125 72.941406 217.09375 C 74.347656 215.804688 76.042969 214.34375 76.6875 213.757812 C 77.332031 213.113281 80.960938 210.597656 84.707031 208.082031 C 99.285156 198.308594 118.191406 190.46875 138.445312 185.84375 C 141.492188 185.140625 144.300781 184.496094 144.59375 184.382812 C 145.355469 184.089844 147.8125 184.03125 147.8125 184.265625 Z M 236.789062 185.902344 C 257.453125 190.875 275.601562 198.425781 289.945312 208.082031 C 293.691406 210.597656 297.320312 213.113281 297.964844 213.757812 C 298.609375 214.34375 300.304688 215.804688 301.710938 217.09375 C 314.414062 228.328125 321.144531 241.90625 318.511719 250.917969 C 316.226562 258.875 307.914062 263.671875 296.558594 263.671875 C 287.894531 263.671875 275.367188 260.339844 264.890625 255.304688 C 259.621094 252.789062 246.742188 245.007812 243.113281 242.199219 C 241.941406 241.320312 240.304688 240.03125 239.425781 239.445312 C 238.605469 238.804688 237.375 237.867188 236.789062 237.398438 C 236.207031 236.871094 234.566406 235.585938 233.160156 234.472656 C 229.707031 231.722656 211.035156 212.820312 211.035156 212.058594 C 211.035156 211.652344 212.320312 211.59375 214.957031 211.882812 L 218.9375 212.292969 L 226.546875 220.019531 C 235.269531 228.796875 236.964844 230.316406 243.875 235.703125 C 254.292969 243.777344 266.46875 250.859375 276.304688 254.484375 C 284.207031 257.410156 287.601562 258.054688 295.328125 258.113281 C 302.0625 258.113281 302.9375 257.996094 305.925781 256.59375 C 315.230469 252.203125 315.640625 241.4375 307.035156 229.96875 C 299.015625 219.316406 285.4375 209.953125 264.890625 200.882812 C 260.792969 199.070312 248.558594 195.207031 240.1875 193.042969 L 231.582031 190.757812 L 229.179688 187.597656 C 227.894531 185.902344 226.839844 184.324219 226.839844 184.207031 C 226.839844 183.796875 231.113281 184.554688 236.789062 185.902344 Z M 180.828125 189.179688 C 180.300781 190.117188 179.246094 191.695312 178.605469 192.691406 C 177.433594 194.5625 177.257812 194.621094 173.335938 194.621094 L 169.296875 194.621094 L 170.875 192.691406 C 171.753906 191.695312 172.75 190.234375 173.101562 189.53125 C 173.628906 188.417969 174.332031 188.183594 177.609375 188.007812 C 179.714844 187.890625 181.589844 187.773438 181.707031 187.714844 C 181.824219 187.65625 181.414062 188.300781 180.828125 189.179688 Z M 193.179688 190.640625 L 195.230469 193.742188 L 191.480469 193.917969 C 189.375 194.035156 185.804688 194.035156 183.519531 193.917969 L 179.421875 193.742188 L 181.472656 190.640625 L 183.578125 187.597656 L 191.074219 187.597656 Z M 201.609375 189.53125 C 201.960938 190.234375 202.898438 191.695312 203.773438 192.691406 L 205.355469 194.621094 L 201.316406 194.621094 C 197.394531 194.621094 197.21875 194.5625 196.046875 192.691406 C 195.402344 191.695312 194.410156 190.175781 193.882812 189.355469 L 192.945312 187.890625 L 196.925781 188.066406 C 200.320312 188.242188 201.023438 188.476562 201.609375 189.53125 Z M 171.988281 188.886719 C 171.753906 189.296875 170.640625 190.875 169.53125 192.339844 C 167.65625 194.972656 167.480469 195.089844 164.027344 195.382812 C 162.039062 195.558594 160.28125 195.617188 160.164062 195.5 C 160.046875 195.324219 160.925781 193.800781 162.15625 192.046875 C 164.261719 188.945312 164.4375 188.828125 167.363281 188.59375 C 169.003906 188.476562 170.816406 188.359375 171.402344 188.300781 C 172.105469 188.242188 172.28125 188.417969 171.988281 188.886719 Z M 208.105469 188.769531 C 210.039062 188.769531 210.449219 189.0625 212.496094 191.988281 C 213.726562 193.800781 214.605469 195.324219 214.488281 195.5 C 214.371094 195.617188 212.613281 195.558594 210.625 195.382812 C 207.171875 195.089844 206.996094 194.972656 205.121094 192.339844 C 201.84375 187.832031 201.84375 187.949219 204.007812 188.359375 C 205.0625 188.59375 206.878906 188.769531 208.105469 188.769531 Z M 160.691406 191.8125 C 159.695312 193.21875 158.582031 194.738281 158.175781 195.265625 C 157.765625 195.851562 155.832031 196.378906 153.257812 196.726562 C 148.515625 197.371094 148.574219 197.78125 152.671875 192.75 C 154.953125 189.941406 155.363281 189.765625 160.867188 189.472656 L 162.503906 189.355469 Z M 221.453125 192.164062 C 222.566406 193.335938 223.914062 194.972656 224.496094 195.792969 L 225.550781 197.3125 L 221.394531 196.726562 C 218.761719 196.378906 216.886719 195.851562 216.476562 195.265625 C 216.066406 194.738281 214.898438 193.160156 213.902344 191.753906 L 212.027344 189.238281 L 215.777344 189.589844 C 219.113281 189.941406 219.757812 190.234375 221.453125 192.164062 Z M 151.910156 190.933594 C 151.910156 191.226562 150.738281 192.867188 149.335938 194.679688 C 147.050781 197.605469 146.464844 198.015625 144.066406 198.308594 C 142.601562 198.542969 140.671875 198.894531 139.851562 199.070312 C 138.503906 199.421875 138.386719 199.363281 138.914062 198.367188 C 139.265625 197.722656 140.554688 196.085938 141.898438 194.621094 C 144.242188 191.988281 144.945312 191.695312 151.5 190.582031 C 151.734375 190.582031 151.910156 190.699219 151.910156 190.933594 Z M 227.191406 191.402344 C 229.589844 191.753906 230.46875 192.222656 232.574219 194.503906 C 233.980469 196.027344 235.386719 197.722656 235.738281 198.367188 C 236.265625 199.363281 236.148438 199.421875 234.800781 199.070312 C 233.980469 198.894531 232.050781 198.542969 230.585938 198.308594 C 228.1875 198.015625 227.601562 197.605469 225.316406 194.679688 C 222.683594 191.285156 222.15625 190.175781 223.5625 190.699219 C 223.972656 190.875 225.609375 191.167969 227.191406 191.402344 Z M 138.855469 196.085938 C 136.164062 199.480469 135.460938 200.0625 132.59375 200.824219 C 130.835938 201.351562 127.148438 202.40625 124.398438 203.164062 C 103.5 209.308594 82.894531 220.953125 74.113281 231.605469 C 70.074219 236.578125 68.785156 239.445312 68.785156 243.71875 C 68.785156 249.863281 71.769531 251.96875 80.433594 251.96875 C 91.558594 251.96875 107.304688 245.125 121.761719 234.003906 C 130.484375 227.273438 131.421875 226.457031 141.082031 217.09375 C 143.890625 214.34375 144.476562 214.050781 148.398438 213.40625 C 150.738281 213.054688 152.730469 212.820312 152.847656 212.9375 C 153.140625 213.230469 141.082031 225.402344 137.335938 228.5625 C 135.578125 230.027344 133.878906 231.488281 133.527344 231.78125 C 133.179688 232.132812 131.304688 233.59375 129.371094 235 C 127.441406 236.460938 125.742188 237.808594 125.566406 237.984375 C 125.390625 238.21875 122.640625 240.089844 119.421875 242.140625 C 100.980469 254.019531 82.894531 259.460938 72.238281 256.300781 C 60.238281 252.789062 59.59375 241.789062 70.660156 228.503906 C 82.425781 214.34375 105.136719 202.171875 134.054688 194.386719 C 138.269531 193.277344 141.722656 192.339844 141.78125 192.339844 C 141.898438 192.28125 140.554688 193.976562 138.855469 196.085938 Z M 254.175781 198.425781 C 284.207031 208.433594 307.269531 225.871094 311.367188 241.671875 C 313.242188 248.808594 310.023438 254.078125 302.414062 256.300781 C 291.757812 259.460938 273.671875 254.019531 255.230469 242.140625 C 252.011719 240.089844 249.257812 238.21875 249.082031 237.984375 C 248.910156 237.808594 247.210938 236.460938 245.277344 235 C 243.347656 233.59375 241.472656 232.132812 241.121094 231.78125 C 240.773438 231.488281 239.074219 230.027344 237.316406 228.5625 C 233.570312 225.402344 221.511719 213.230469 221.804688 212.9375 C 221.921875 212.820312 223.914062 213.054688 226.253906 213.40625 C 230.175781 214.050781 230.761719 214.34375 233.570312 217.09375 C 243.230469 226.457031 244.167969 227.273438 252.890625 234.003906 C 259.386719 238.980469 265.242188 242.546875 272.792969 246.175781 C 281.164062 250.15625 287.777344 251.96875 294.21875 251.96875 C 302.878906 251.96875 305.867188 249.863281 305.867188 243.71875 C 305.867188 239.445312 304.578125 236.578125 300.539062 231.605469 C 291.757812 220.953125 271.152344 209.308594 250.253906 203.164062 C 247.503906 202.40625 243.816406 201.351562 242.058594 200.824219 C 239.191406 200.0625 238.488281 199.480469 235.796875 196.144531 L 232.808594 192.398438 L 240.539062 194.445312 C 244.753906 195.558594 250.898438 197.3125 254.175781 198.425781 Z M 196.984375 196.496094 C 197.6875 197.253906 198.683594 198.542969 199.210938 199.421875 C 199.734375 200.355469 200.378906 201.058594 200.613281 201.058594 C 200.847656 201.058594 201.082031 201.234375 201.082031 201.46875 C 201.082031 201.761719 194.878906 201.9375 187.324219 201.9375 C 179.773438 201.9375 173.570312 201.761719 173.570312 201.46875 C 173.570312 201.234375 173.804688 201.058594 174.039062 201.058594 C 174.273438 201.058594 174.914062 200.355469 175.441406 199.421875 C 177.960938 195.265625 178.078125 195.207031 187.324219 195.207031 C 195.347656 195.207031 195.8125 195.265625 196.984375 196.496094 Z M 174.039062 199.011719 C 172.398438 201.117188 171.109375 202.230469 170.292969 202.230469 C 169.589844 202.230469 167.773438 202.40625 166.253906 202.640625 L 163.441406 202.988281 L 165.082031 200.707031 C 168.652344 195.851562 168.769531 195.792969 172.808594 195.792969 L 176.554688 195.792969 Z M 208.457031 199.304688 C 209.804688 201.058594 210.859375 202.582031 210.742188 202.699219 C 210.683594 202.8125 208.867188 202.699219 206.820312 202.464844 C 203.074219 202.113281 202.957031 202.054688 200.496094 198.894531 L 198.039062 195.734375 L 206 196.085938 Z M 165.316406 198.25 C 163.148438 201.410156 160.75 203.398438 159.050781 203.398438 C 158.175781 203.398438 156.417969 203.574219 155.128906 203.808594 L 152.789062 204.160156 L 155.128906 201.292969 C 156.417969 199.710938 157.765625 198.132812 158.117188 197.722656 C 158.699219 197.078125 160.75 196.726562 164.964844 196.496094 L 166.601562 196.378906 Z M 216.59375 197.78125 C 216.945312 198.132812 218.234375 199.710938 219.523438 201.292969 L 221.863281 204.160156 L 219.523438 203.808594 C 218.234375 203.574219 216.476562 203.398438 215.601562 203.398438 C 213.902344 203.398438 211.503906 201.410156 209.277344 198.25 L 207.929688 196.261719 L 211.96875 196.667969 C 214.136719 196.902344 216.242188 197.429688 216.59375 197.78125 Z M 156.007812 197.898438 C 156.007812 198.132812 154.835938 199.710938 153.375 201.410156 C 150.855469 204.335938 150.5625 204.511719 146.582031 205.15625 C 144.300781 205.566406 142.367188 205.742188 142.25 205.683594 C 142.132812 205.566406 143.421875 203.925781 145.0625 202.113281 C 147.8125 199.011719 148.398438 198.660156 151.324219 198.191406 C 155.65625 197.488281 156.007812 197.488281 156.007812 197.898438 Z M 224.320312 198.425781 C 226.371094 198.71875 227.25 199.363281 229.765625 202.289062 C 231.40625 204.160156 232.460938 205.742188 232.050781 205.742188 C 231.640625 205.742188 229.648438 205.449219 227.601562 205.097656 C 224.148438 204.511719 223.738281 204.21875 221.277344 201.351562 C 219.816406 199.65625 218.644531 198.132812 218.644531 197.898438 C 218.644531 197.664062 219.347656 197.605469 220.28125 197.78125 C 221.160156 197.957031 222.976562 198.25 224.320312 198.425781 Z M 144.828125 200.296875 C 144.359375 200.882812 143.714844 201.644531 143.363281 201.996094 C 143.011719 202.40625 142.015625 203.515625 141.140625 204.570312 C 139.851562 206.148438 138.738281 206.675781 135.050781 207.554688 C 132.59375 208.140625 130.484375 208.550781 130.425781 208.433594 C 130.367188 208.375 131.773438 206.675781 133.644531 204.6875 C 136.632812 201.410156 137.335938 200.941406 140.496094 200.238281 C 145.472656 199.070312 145.824219 199.070312 144.828125 200.296875 Z M 233.863281 200.238281 C 237.667969 201.117188 238.136719 201.351562 241.121094 204.746094 C 242.878906 206.734375 244.285156 208.375 244.226562 208.433594 C 244.167969 208.550781 242.058594 208.140625 239.601562 207.554688 C 235.914062 206.675781 234.800781 206.148438 233.511719 204.570312 C 232.632812 203.515625 231.640625 202.40625 231.289062 201.996094 C 229.882812 200.53125 229.0625 199.304688 229.414062 199.304688 C 229.648438 199.304688 231.640625 199.710938 233.863281 200.238281 Z M 133.179688 202.640625 C 133.179688 202.929688 131.773438 204.570312 130.074219 206.382812 C 127.324219 209.367188 126.621094 209.777344 122.347656 210.949219 C 116.554688 212.585938 105.839844 216.800781 99.226562 220.136719 C 87.8125 225.8125 77.214844 234.589844 75.867188 239.503906 C 74.992188 242.664062 75.050781 243.074219 76.6875 244.65625 C 77.917969 245.941406 78.621094 246.117188 82.132812 246.117188 C 86.933594 246.117188 90.738281 245.066406 97.761719 241.789062 C 105.722656 238.042969 119.128906 228.503906 127.675781 220.546875 C 131.539062 216.917969 131.832031 216.742188 136.515625 215.628906 C 139.03125 215.101562 141.140625 214.695312 141.199219 214.753906 C 141.375 214.925781 132.417969 223.589844 129.023438 226.515625 C 126.152344 229.03125 116.613281 236.054688 111.753906 239.269531 C 106.660156 242.605469 96.882812 247.289062 91.324219 249.042969 C 86.289062 250.625 78.035156 251.210938 75.050781 250.273438 C 67.789062 247.875 68.433594 239.796875 76.628906 231.019531 C 85.996094 221.011719 101.449219 212.175781 120.886719 205.742188 C 131.597656 202.171875 133.179688 201.761719 133.179688 202.640625 Z M 253.765625 205.742188 C 273.203125 212.175781 288.65625 221.011719 298.023438 231.019531 C 304.460938 237.867188 306.335938 244.070312 303.230469 247.816406 C 301.125 250.273438 298.433594 251.035156 292.460938 250.625 C 281.457031 249.980469 269.164062 244.246094 253.183594 232.367188 C 250.136719 230.140625 246.742188 227.449219 245.628906 226.515625 C 242.234375 223.589844 233.277344 214.925781 233.453125 214.753906 C 233.511719 214.695312 235.621094 215.101562 238.136719 215.628906 C 242.820312 216.742188 243.113281 216.917969 246.976562 220.546875 C 255.523438 228.503906 268.929688 238.042969 276.890625 241.789062 C 283.914062 245.066406 287.71875 246.117188 292.519531 246.117188 C 296.03125 246.117188 296.734375 245.941406 297.964844 244.65625 C 299.601562 243.074219 299.660156 242.664062 298.78125 239.503906 C 297.4375 234.589844 286.839844 225.8125 275.425781 220.136719 C 268.8125 216.800781 258.097656 212.585938 252.304688 210.949219 C 248.03125 209.777344 247.328125 209.367188 244.578125 206.382812 C 242.878906 204.570312 241.472656 202.871094 241.472656 202.640625 C 241.472656 201.878906 244.34375 202.640625 253.765625 205.742188 Z M 199.09375 203.164062 C 202.3125 203.515625 202.722656 203.691406 204.300781 205.914062 C 205.296875 207.203125 206.234375 208.550781 206.46875 208.898438 C 206.703125 209.367188 201.023438 209.542969 187.324219 209.542969 C 173.628906 209.542969 167.949219 209.367188 168.183594 208.898438 C 170.757812 204.746094 172.222656 203.457031 174.449219 203.222656 C 178.605469 202.871094 195.519531 202.8125 199.09375 203.164062 Z M 168.769531 205.855469 C 165.667969 209.894531 165.375 210.070312 161.335938 210.480469 C 159.226562 210.714844 157.355469 210.773438 157.238281 210.714844 C 157.121094 210.597656 158.289062 209.015625 159.8125 207.261719 C 162.679688 203.867188 162.15625 204.042969 169.355469 203.515625 C 170.699219 203.398438 170.699219 203.457031 168.769531 205.855469 Z M 214.664062 207.085938 C 217.765625 210.480469 218.117188 211.300781 216.183594 210.773438 C 215.425781 210.597656 213.785156 210.421875 212.4375 210.421875 C 209.804688 210.421875 208.867188 209.777344 205.824219 205.855469 L 203.890625 203.339844 L 207.871094 203.75 C 211.796875 204.101562 211.96875 204.160156 214.664062 207.085938 Z M 159.460938 205.566406 C 155.480469 210.65625 154.660156 211.242188 149.863281 211.941406 C 144.945312 212.644531 144.945312 212.996094 149.570312 207.964844 C 151.675781 205.742188 154.132812 204.804688 158.582031 204.628906 C 160.105469 204.570312 160.164062 204.6875 159.460938 205.566406 Z M 219.875 205.15625 C 223.035156 205.742188 223.738281 206.324219 228.128906 211.359375 C 229.179688 212.527344 229.121094 212.527344 224.789062 211.941406 C 219.992188 211.242188 219.171875 210.65625 215.191406 205.566406 C 214.488281 204.6875 214.546875 204.570312 215.542969 204.570312 C 216.183594 204.570312 218.175781 204.863281 219.875 205.15625 Z M 146.464844 209.425781 C 143.304688 212.996094 143.128906 213.113281 139.148438 213.816406 C 136.925781 214.167969 134.699219 214.636719 134.171875 214.871094 C 133.644531 215.042969 134.875 213.523438 136.867188 211.417969 C 140.378906 207.671875 140.613281 207.554688 144.886719 206.734375 C 147.285156 206.207031 149.394531 205.796875 149.453125 205.796875 C 149.570312 205.742188 148.222656 207.378906 146.464844 209.425781 Z M 237.785156 211.417969 C 239.777344 213.523438 241.003906 215.042969 240.480469 214.871094 C 239.953125 214.636719 237.726562 214.167969 235.503906 213.816406 C 231.582031 213.113281 231.347656 212.996094 228.304688 209.484375 L 225.140625 205.855469 L 229.648438 206.734375 C 234.097656 207.554688 234.214844 207.671875 237.785156 211.417969 Z M 134.40625 211.828125 C 131.070312 215.21875 130.25 215.6875 126.796875 216.566406 C 124.691406 217.09375 122.464844 217.621094 121.878906 217.796875 C 121.292969 217.96875 122.523438 216.390625 124.574219 214.285156 C 128.4375 210.304688 128.964844 210.070312 137.859375 208.140625 C 137.976562 208.082031 136.457031 209.777344 134.40625 211.828125 Z M 250.078125 214.285156 C 252.128906 216.390625 253.355469 217.96875 252.773438 217.796875 C 252.1875 217.621094 249.960938 217.09375 247.855469 216.566406 C 244.402344 215.6875 243.582031 215.21875 240.304688 211.882812 L 236.675781 208.199219 L 241.472656 209.308594 C 246.15625 210.421875 246.449219 210.597656 250.078125 214.285156 Z M 121.175781 215.570312 C 117.605469 218.964844 116.496094 219.667969 112.691406 220.898438 C 97.820312 225.578125 82.25 235 82.25 239.269531 C 82.25 240.734375 82.425781 240.851562 84.882812 240.851562 C 88.394531 240.851562 92.726562 239.15625 98.875 235.292969 C 103.324219 232.484375 110.582031 227.273438 111.519531 226.222656 C 111.695312 226.046875 113.332031 224.640625 115.148438 223.0625 C 117.839844 220.839844 119.539062 219.960938 123.34375 218.847656 C 125.976562 218.085938 128.261719 217.445312 128.378906 217.445312 C 129.546875 217.445312 119.011719 226.398438 111.8125 231.546875 C 99.753906 240.207031 89.15625 244.949219 82.015625 244.949219 C 76.804688 244.949219 75.632812 242.199219 78.796875 237.28125 C 83.421875 230.082031 98.230469 220.953125 115.03125 214.925781 C 119.070312 213.523438 122.757812 212.175781 123.226562 212 C 125.390625 211.242188 124.984375 211.882812 121.175781 215.570312 Z M 259.621094 214.925781 C 276.421875 220.953125 291.230469 230.082031 295.855469 237.28125 C 301.183594 245.53125 293.867188 247.464844 279.816406 241.613281 C 275.191406 239.679688 269.339844 236.226562 262.839844 231.546875 C 255.640625 226.398438 245.101562 217.445312 246.273438 217.445312 C 246.390625 217.445312 248.675781 218.085938 251.308594 218.847656 C 255.113281 219.960938 256.8125 220.839844 259.503906 223.0625 C 261.320312 224.640625 262.957031 226.046875 263.132812 226.222656 C 264.070312 227.273438 271.328125 232.484375 275.777344 235.292969 C 281.925781 239.15625 286.253906 240.851562 289.769531 240.851562 C 292.226562 240.851562 292.402344 240.734375 292.402344 239.269531 C 292.402344 235 276.832031 225.578125 261.960938 220.898438 C 258.097656 219.667969 257.046875 219.023438 253.472656 215.511719 C 248.792969 210.949219 248.617188 211.007812 259.621094 214.925781 Z M 112.691406 223.355469 C 102.386719 232.191406 88.804688 240.089844 84.707031 239.5625 L 83.304688 239.386719 L 84.589844 237.75 C 86.347656 235.585938 92.199219 231.488281 97.46875 228.796875 C 101.332031 226.808594 113.683594 221.597656 114.445312 221.597656 C 114.621094 221.597656 113.800781 222.359375 112.691406 223.355469 Z M 271.914062 226.339844 C 281.046875 230.433594 289.125 235.644531 290.644531 238.511719 C 291.171875 239.5625 291.113281 239.679688 289.828125 239.679688 C 285.144531 239.679688 271.738281 231.839844 261.960938 223.296875 L 259.914062 221.539062 L 263.71875 222.945312 C 265.824219 223.707031 269.515625 225.226562 271.914062 226.339844 Z M 271.914062 226.339844 " fill-opacity="1" fill-rule="nonzero"/></g></svg>